<?xml version="1.0"?>
<!-- Generated by SVGo -->
<svg width="251.334mm" height="112.515mm"
     viewBox="0.000 0.000 251.334 112.515"
     xmlns="http://www.w3.org/2000/svg" 
     xmlns:xlink="http://www.w3.org/1999/xlink">
<polygon points="246.334,62.957 242.833,62.957 242.061,63.079 241.364,63.434 240.811,63.987 240.456,64.684 240.449,64.727 238.748,55.083 223.385,57.792 225.608,70.397 240.971,67.688 240.842,66.958 241.364,67.480 242.061,67.835 242.833,67.957 246.334,67.957 246.334,107.514 5.000,107.514 5.000,67.957 8.500,67.957 9.273,67.835 9.969,67.480 10.522,66.927 10.877,66.230 11.000,65.458 11.000,65.456 10.877,64.684 10.522,63.987 9.969,63.434 9.273,63.079 8.501,62.957 5.000,62.957 5.000,5.000 246.334,5.000" style="fill:none;stroke-width:0.2;stroke:black"/>
<polygon points="85.929,101.590 101.292,104.299 103.515,91.693 88.152,88.984" style="fill:none;stroke-width:0.2;stroke:black"/>
<polygon points="151.981,91.660 154.204,104.266 169.567,101.557 167.344,88.951" style="fill:none;stroke-width:0.2;stroke:black"/>
<polygon points="107.479,97.139 120.085,99.362 122.794,83.999 110.188,81.776" style="fill:none;stroke-width:0.2;stroke:black"/>
<polygon points="132.702,83.966 135.411,99.329 148.017,97.106 145.308,81.743" style="fill:none;stroke-width:0.2;stroke:black"/>
<polygon points="169.584,81.786 171.542,92.888 171.289,93.384 171.167,94.157 171.289,94.929 171.644,95.626 172.197,96.179 172.894,96.535 173.667,96.657 174.439,96.535 175.136,96.179 175.689,95.626 176.044,94.929 176.167,94.157 176.084,93.638 187.170,91.683 184.947,79.077" style="fill:none;stroke-width:0.2;stroke:black"/>
<polygon points="68.326,91.716 83.689,94.424 85.912,81.819 70.549,79.110" style="fill:none;stroke-width:0.2;stroke:black"/>
<polygon points="11.217,86.482 26.580,89.191 28.803,76.585 13.440,73.876" style="fill:none;stroke-width:0.2;stroke:black"/>
<polygon points="226.693,76.552 228.916,89.158 244.279,86.449 242.056,73.843" style="fill:none;stroke-width:0.2;stroke:black"/>
<polygon points="30.805,85.100 46.168,87.808 48.391,75.203 33.028,72.494" style="fill:none;stroke-width:0.2;stroke:black"/>
<polygon points="207.105,75.170 209.328,87.776 224.691,85.067 222.468,72.461" style="fill:none;stroke-width:0.2;stroke:black"/>
<polygon points="89.237,82.829 104.600,85.538 106.823,72.932 91.460,70.224" style="fill:none;stroke-width:0.2;stroke:black"/>
<polygon points="148.673,72.900 150.896,85.505 166.259,82.796 164.036,70.191" style="fill:none;stroke-width:0.2;stroke:black"/>
<polygon points="50.723,81.841 66.086,84.550 68.309,71.945 52.946,69.236" style="fill:none;stroke-width:0.2;stroke:black"/>
<polygon points="187.187,71.912 189.410,84.517 204.773,81.809 202.550,69.203" style="fill:none;stroke-width:0.2;stroke:black"/>
<polygon points="71.634,72.955 86.997,75.664 89.220,63.058 73.857,60.349" style="fill:none;stroke-width:0.2;stroke:black"/>
<polygon points="166.276,63.025 168.499,75.631 183.862,72.922 181.639,60.317" style="fill:none;stroke-width:0.2;stroke:black"/>
<polygon points="14.525,67.721 29.888,70.430 32.110,57.824 16.748,55.116" style="fill:none;stroke-width:0.2;stroke:black"/>
<polygon points="34.113,66.339 49.476,69.048 51.699,56.442 36.336,53.733" style="fill:none;stroke-width:0.2;stroke:black"/>
<polygon points="203.797,56.410 206.020,69.015 221.383,66.306 219.160,53.701" style="fill:none;stroke-width:0.2;stroke:black"/>
<polygon points="92.545,64.069 107.908,66.777 109.480,57.862 109.897,58.279 110.594,58.635 111.367,58.757 112.139,58.635 112.836,58.279 113.389,57.726 113.744,57.029 113.867,56.257 113.744,55.484 113.389,54.787 112.836,54.234 112.139,53.879 111.367,53.757 110.594,53.879 110.048,54.157 94.768,51.463" style="fill:none;stroke-width:0.2;stroke:black"/>
<polygon points="145.365,54.139 147.588,66.745 162.951,64.036 160.728,51.430" style="fill:none;stroke-width:0.2;stroke:black"/>
<polygon points="54.031,63.081 69.394,65.790 71.617,53.184 56.254,50.475" style="fill:none;stroke-width:0.2;stroke:black"/>
<polygon points="183.879,53.151 186.102,65.757 201.465,63.048 199.242,50.442" style="fill:none;stroke-width:0.2;stroke:black"/>
<polygon points="74.942,54.194 90.305,56.903 92.528,44.298 77.165,41.589" style="fill:none;stroke-width:0.2;stroke:black"/>
<polygon points="162.968,44.265 165.191,56.870 180.554,54.162 178.331,41.556" style="fill:none;stroke-width:0.2;stroke:black"/>
<polygon points="17.833,48.960 33.196,51.669 35.419,39.064 20.056,36.355" style="fill:none;stroke-width:0.2;stroke:black"/>
<polygon points="220.077,39.031 222.300,51.637 237.663,48.928 235.440,36.322" style="fill:none;stroke-width:0.2;stroke:black"/>
<polygon points="37.421,47.578 52.784,50.287 55.007,37.682 39.644,34.973" style="fill:none;stroke-width:0.2;stroke:black"/>
<polygon points="200.489,37.649 202.712,50.254 218.075,47.546 215.852,34.940" style="fill:none;stroke-width:0.2;stroke:black"/>
<polygon points="95.853,45.308 111.216,48.017 113.439,35.411 98.076,32.702" style="fill:none;stroke-width:0.2;stroke:black"/>
<polygon points="142.057,35.379 144.280,47.984 159.643,45.275 157.420,32.670" style="fill:none;stroke-width:0.2;stroke:black"/>
<polygon points="57.339,44.320 72.702,47.029 74.925,34.424 59.562,31.715" style="fill:none;stroke-width:0.2;stroke:black"/>
<polygon points="180.571,34.391 182.794,46.996 198.157,44.287 195.934,31.682" style="fill:none;stroke-width:0.2;stroke:black"/>
<polygon points="7.594,34.479 6.897,34.834 6.344,35.387 5.989,36.084 5.867,36.857 5.989,37.629 6.344,38.326 6.897,38.879 7.594,39.235 8.367,39.357 9.139,39.235 9.836,38.879 10.389,38.326 10.744,37.629 10.867,36.857 10.744,36.084 10.389,35.387 9.836,34.834 9.139,34.479 8.367,34.357" style="fill:none;stroke-width:0.2;stroke:black"/>
<polygon points="242.444,34.479 241.747,34.834 241.194,35.387 240.839,36.084 240.717,36.857 240.839,37.629 241.194,38.326 241.747,38.879 242.444,39.235 243.217,39.357 243.989,39.235 244.686,38.879 245.239,38.326 245.594,37.629 245.717,36.857 245.594,36.084 245.239,35.387 244.686,34.834 243.989,34.479 243.217,34.357" style="fill:none;stroke-width:0.2;stroke:black"/>
<polygon points="78.250,35.434 93.613,38.143 95.836,25.537 80.473,22.828" style="fill:none;stroke-width:0.2;stroke:black"/>
<polygon points="159.660,25.504 161.883,38.110 177.246,35.401 175.023,22.795" style="fill:none;stroke-width:0.2;stroke:black"/>
<polygon points="21.141,30.200 36.504,32.909 38.727,20.303 23.364,17.594" style="fill:none;stroke-width:0.2;stroke:black"/>
<polygon points="216.769,20.270 218.992,32.876 234.355,30.167 232.132,17.562" style="fill:none;stroke-width:0.2;stroke:black"/>
<polygon points="40.729,28.818 56.092,31.527 58.315,18.921 42.952,16.212" style="fill:none;stroke-width:0.2;stroke:black"/>
<polygon points="197.181,18.888 199.404,31.494 214.767,28.785 212.544,16.178" style="fill:none;stroke-width:0.2;stroke:black"/>
<polygon points="60.647,25.560 76.010,28.268 78.233,15.663 62.870,12.954" style="fill:none;stroke-width:0.2;stroke:black"/>
<polygon points="177.263,15.630 179.486,28.236 194.849,25.527 192.626,12.921" style="fill:none;stroke-width:0.2;stroke:black"/>
</svg>
