<?xml version="1.0" encoding="utf-8"?>
<!-- Generator: Adobe Illustrator 16.0.0, SVG Export Plug-In . SVG Version: 6.00 Build 0)  -->
<!DOCTYPE svg PUBLIC "-//W3C//DTD SVG 1.1//EN" "http://www.w3.org/Graphics/SVG/1.1/DTD/svg11.dtd">
<svg version="1.1"
	 id="svg2" xmlns:svg="http://www.w3.org/2000/svg" xmlns:rdf="http://www.w3.org/1999/02/22-rdf-syntax-ns#" xmlns:dc="http://purl.org/dc/elements/1.1/" xmlns:inkscape="http://www.inkscape.org/namespaces/inkscape" xmlns:sodipodi="http://sodipodi.sourceforge.net/DTD/sodipodi-0.dtd" xmlns:cc="http://creativecommons.org/ns#" sodipodi:docname="atreus62_alps.svg" inkscape:version="0.91 r13725"
	 xmlns="http://www.w3.org/2000/svg" xmlns:xlink="http://www.w3.org/1999/xlink" x="0px" y="0px" width="500.89px"
	 height="500.281px" viewBox="0 0 500.89 500.281" enable-background="new 0 0 500.89 500.281" xml:space="preserve">
<sodipodi:namedview  inkscape:cy="297.63751" inkscape:cx="147.62325" guidetolerance="10" inkscape:zoom="0.34208704" showgrid="false" id="namedview3300" borderopacity="1" bordercolor="#666666" objecttolerance="10" gridtolerance="10" pagecolor="#ffffff" inkscape:current-layer="svg2" inkscape:window-y="0" inkscape:window-x="0" inkscape:window-height="848" inkscape:window-maximized="0" inkscape:pageopacity="0" inkscape:window-width="1367" inkscape:pageshadow="2">
	</sodipodi:namedview>
<polygon id="polygon2782" fill="none" stroke="#0000FF" points="79.225,382.893 137.292,372.658 128.889,325.008 70.825,335.248 "/>
<polygon id="polygon2784" fill="none" stroke="#0000FF" points="66.723,311.986 124.789,301.746 116.384,254.109 58.323,264.346 "/>
<polygon id="polygon2786" fill="none" stroke="#0000FF" points="54.217,241.083 112.286,230.844 103.884,183.199 45.821,193.437 "/>
<polygon id="polygon2788" fill="none" stroke="#0000FF" points="41.717,170.176 99.784,159.936 91.379,112.296 33.318,122.535 "/>
<polygon id="polygon2790" fill="none" stroke="#0000FF" points="91.935,453.428 149.997,443.188 141.599,395.547 83.534,405.783 "/>
<polygon id="polygon2792" fill="none" stroke="#0000FF" points="146.903,351.463 204.968,341.223 196.567,293.578 138.501,303.82 
	"/>
<polygon id="polygon2794" fill="none" stroke="#0000FF" points="134.163,280.738 192.231,270.5 183.83,222.859 125.766,233.1 "/>
<polygon id="polygon2796" fill="none" stroke="#0000FF" points="121.96,209.927 180.026,199.688 171.625,152.042 113.559,162.281 
	"/>
<polygon id="polygon2798" fill="none" stroke="#0000FF" points="108.906,139.377 166.971,129.137 158.567,81.496 100.504,91.736 "/>
<polygon id="polygon2800" fill="none" stroke="#0000FF" points="159.373,422.262 217.436,412.02 209.037,364.375 150.971,374.613 
	"/>
<polygon id="polygon2802" fill="none" stroke="#0000FF" points="213.734,316.742 271.799,306.502 263.398,258.855 205.33,269.096 
	"/>
<polygon id="polygon2804" fill="none" stroke="#0000FF" points="201.231,246.21 259.296,235.969 250.895,188.33 192.83,198.571 "/>
<polygon id="polygon2806" fill="none" stroke="#0000FF" points="188.729,175.305 246.793,165.068 238.392,117.421 180.327,127.66 
	"/>
<polygon id="polygon2808" fill="none" stroke="#0000FF" points="176.225,104.399 234.292,94.16 225.887,46.52 167.825,56.758 "/>
<polygon id="polygon2810" fill="none" stroke="#0000FF" points="225.958,387.461 284.023,377.221 275.622,329.574 217.553,339.813 
	"/>
<polygon id="polygon2812" fill="none" stroke="#0000FF" points="287.739,322.793 345.804,312.555 337.403,264.91 279.338,275.15 "/>
<polygon id="polygon2814" fill="none" stroke="#0000FF" points="275.237,251.887 333.301,241.65 324.901,194.008 266.833,204.247 
	"/>
<polygon id="polygon2816" fill="none" stroke="#0000FF" points="262.734,180.986 320.799,170.744 312.398,123.101 254.331,133.34 
	"/>
<polygon id="polygon2818" fill="none" stroke="#0000FF" points="250.231,110.523 308.296,100.286 299.893,52.642 241.827,62.881 "/>
<polygon id="polygon2820" fill="none" stroke="#0000FF" points="299.96,393.852 358.026,383.609 349.625,335.963 291.559,346.205 
	"/>
<polygon id="polygon2822" fill="none" stroke="#0000FF" points="360.424,321.488 418.489,311.248 410.088,263.604 352.023,273.844 
	"/>
<polygon id="polygon2824" fill="none" stroke="#0000FF" points="347.921,250.579 405.987,240.343 397.585,192.701 339.52,202.94 "/>
<polygon id="polygon2826" fill="none" stroke="#0000FF" points="335.418,179.679 393.484,169.437 385.083,121.794 327.018,132.032 
	"/>
<polygon id="polygon2828" fill="none" stroke="#0000FF" points="322.917,109.217 380.981,98.98 372.581,51.339 314.515,61.576 "/>
<polygon id="polygon2830" fill="none" stroke="#0000FF" points="372.648,392.547 430.71,382.303 422.312,334.658 364.247,344.898 
	"/>
<polygon id="polygon2832" fill="none" stroke="#0000FF" points="431.145,308.719 489.21,298.477 480.809,250.832 422.745,261.072 
	"/>
<polygon id="polygon2834" fill="none" stroke="#0000FF" points="418.643,237.812 476.708,227.574 468.307,179.932 410.242,190.172 
	"/>
<polygon id="polygon2836" fill="none" stroke="#0000FF" points="406.14,167.436 464.206,157.196 455.804,109.552 397.739,119.792 
	"/>
<polygon id="polygon2838" fill="none" stroke="#0000FF" points="394.002,96.714 452.067,86.476 443.664,38.835 385.601,49.074 "/>
<polygon id="polygon2840" fill="none" stroke="#0000FF" points="443.367,379.773 501.432,369.535 493.031,321.887 434.965,332.127 
	"/>
<polygon id="polygon2842" fill="none" stroke="#0000FF" points="14.979,430.541 73.044,420.299 64.643,372.656 6.578,382.891 "/>
<g>
	<path id="path1952_2_" inkscape:connector-curvature="0" fill="none" stroke="#0000FF" d="M82.103,503.51l448.831-90.654"/>
	<path fill="none" stroke="#0000FF" d="M-32.865,504.145V-11.938V504.145z"/>
	<polyline fill="none" stroke="#0000FF" points="-32.865,504.145 76.456,504.141 79.301,504.004 79.301,504.008 82.106,503.512 
		530.934,412.855 533.656,412.012 536.25,410.838 536.25,410.84 538.674,409.348 538.674,409.346 540.895,407.559 540.895,407.563 
		542.867,405.516 542.872,405.512 544.578,403.23 545.987,400.756 547.07,398.121 547.815,395.375 547.815,395.379 548.213,392.559 
		548.21,392.557 548.252,389.707 548.254,389.711 547.937,386.883 480.918,6.798 480.25,4.032 479.237,1.369 477.898,-1.145 
		476.257,-3.473 474.34,-5.573 474.338,-5.573 472.167,-7.418 469.786,-8.979 467.223,-10.229 464.528,-11.145 464.531,-11.145 
		461.742,-11.72 458.903,-11.938 	"/>
	<path fill="none" stroke="#0000FF" d="M-32.865-11.938h491.768H-32.865z"/>
</g>
<g id="Layer_2">
</g>
<g>
	<title>svgOutput</title>
	<desc>made with tinkercad</desc>
	<path fill="none" stroke="#0000FF" stroke-width="0.1417" d="M507.355,417.57l-1.965,0.398l-8.042,1.623l-22.92,4.629
		l-26.597,5.369l-4.364,0.883l-6.944,1.402l-54.98,11.102l-123.848,25.01l-58.014,11.715l-3.91,0.791l-33.057,6.676l-0.577,0.115
		l-28.29,5.713l-3.974,0.803l-14.055,2.838l-0.556,0.113l-10.023,2.023l-0.544,0.109l-10.032,2.027l-0.556,0.111l-9.982,2.016
		l-0.557,0.111l-1.459,0.295l-0.002,0.002l-2.799,0.494l-2.85,0.131h-4.536h-3.405l-45.021,0.004h-3.84H10l-34.407,0.004h-0.576
		h-0.531h-7.342l0,0l0,0v-10.279V379.74v-3.836V246.103V122.255V-1.592v-10.28H10h64.093h59.755h86.376h3.84h33.632h35.492h3.832
		h84.523h57.606h3.838h0.48h15.431l2.839,0.22l2.779,0.572l0.01,0.002h-0.004l2.695,0.914l2.563,1.252l2.367,1.551l0.014,0.01
		l1.844,1.568l0.326,0.275l1.633,1.783l0.286,0.314l1.28,1.818l0.36,0.514l1.339,2.51l1.013,2.661l0.672,2.767l3.97,22.511
		l5.461,30.962l3.324,18.851l2.137,12.111l5.46,30.962l4.125,23.389l17.718,100.459l21.842,123.848l2.979,16.895l0.313,2.797
		l0.004,0.029l-0.004-0.004l-0.041,2.852l0.004,0.004l-0.394,2.795l-0.004,0.023v-0.012l-0.749,2.752l-1.08,2.631l-0.113,0.201
		l-1.297,2.277l-1.69,2.262l-0.015,0.018l-0.006,0.004l-1.956,2.029l-0.015,0.016l-1.889,1.516l-0.332,0.27l-2.061,1.271
		l-0.254,0.156l-0.109,0.068l-0.389,0.176l-2.203,0.996l-2.722,0.838l-1.887,0.381l-0.556,0.113l-7.616,1.537l-2.399,0.484
		l-0.557,0.113l-4.729,0.955l-2.49,0.502l-2.786,0.563l-0.196,0.041L507.355,417.57 M236.739,408.652l0.111-0.834l-0.143-1.074
		l-0.416-1.002l-0.662-0.861l-0.857-0.662l-0.299-0.121l-0.707-0.293l-1.072-0.141l-1.078,0.141l-1.001,0.414l-0.862,0.662
		l-0.661,0.861l-0.416,1.002l-0.14,1.074l0.108,0.834l0.031,0.242l0.416,1.002l0.661,0.861l0.862,0.662l1.001,0.416l1.078,0.137
		l1.072-0.137l1.006-0.416l0.857-0.662l0.662-0.861l0.416-1.002L236.739,408.652 M133.265,296.699l0.582,0.078l0.495,0.066
		l1.077-0.145l1.002-0.406l0.861-0.666l0.657-0.861l0.416-1.002l0.145-1.074l-0.02-0.143l-0.125-0.934l-0.416-1.006l-0.657-0.857
		l-0.861-0.662l-1.002-0.416l-1.077-0.145l-0.495,0.066l-0.582,0.078l-1.001,0.416l-0.862,0.662l-0.661,0.857l-0.416,1.006
		l-0.121,0.934l-0.019,0.143l0.14,1.074l0.416,1.002l0.661,0.861l0.862,0.666L133.265,296.699 M317.703,153.217l-5.306-30.085
		l-54.702,9.642l-3.364,0.593l3.364,19.071l0.138,0.779L262.734,181l56.886-10.03l1.178-0.208l-0.363-2.063l-0.814-4.621
		L317.703,153.217 M327.647,185.003l0.633-0.824l0.028-0.038l0.415-1.001l0.145-1.077l-0.145-1.073l-0.415-1.006l-0.661-0.857
		l-0.288-0.223l-0.57-0.439l-1.005-0.416l-1.073-0.143l-1.078,0.143l-1.001,0.416l-0.862,0.662l-0.661,0.857l-0.416,1.006
		l-0.139,1.073l0.139,1.077l0.416,1.001l0.029,0.038l0.632,0.824l0.862,0.661l1.001,0.412l1.078,0.144l1.073-0.144l1.005-0.412
		l0.57-0.44L327.647,185.003 M381.542,341.824l-17.298,3.051l4.423,25.076l3.978,22.557l8.897-1.57l30.962-5.459l0.264-0.047
		l17.938-3.162l-0.051-0.289l-2.121-12.029l-5.458-30.963l-0.769-4.354l-9.804,1.729l-14.888,2.625L381.542,341.824 M271.8,306.488
		l-5.188-29.422l-2.73-15.482l-0.483-2.736l-5.703,1.006l-52.365,9.232l1.407,7.98l5.464,30.961l1.534,8.695l43.96-7.748
		l5.379-0.947L271.8,306.488 M506.116,388.814l-0.662-0.861l-0.063-0.049l-0.797-0.609l-1.003-0.416l-1.076-0.143l-1.077,0.143
		l-1.001,0.416l-0.862,0.658l-0.657,0.861l-0.416,1.002l-0.145,1.078l0.145,1.076l0.416,0.998l0.154,0.203l0.503,0.662l0.862,0.658
		l1.001,0.414l1.077,0.145l1.076-0.145l1.003-0.414l0.797-0.609l0.063-0.049l0.507-0.662l0.155-0.203l0.416-0.998l0.14-1.076
		l-0.14-1.078L506.116,388.814 M350.581,177.019l30.962-5.459l11.94-2.105l-0.135-0.756l-2.73-15.481l-5.462-30.962l-0.075-0.431
		l-2.444,0.431l-1.094,0.193l-54.527,9.611l3.731,21.157l2.732,15.481l1.364,7.74l0.257,1.454l0.317,1.8L350.581,177.019
		 M137.294,372.627l-0.472-2.676l-2.863-16.234l-0.112-0.637l-4.955-28.098l-56.969,10.045l-1.093,0.193l0.665,3.768l0.428,2.43
		l5.03,28.533l2.275,12.906l54.618-9.623L137.294,372.627 M215.219,399.391l-5.192-29.439l-0.989-5.613l-13.267,2.342l-18.552,3.271
		l-12.41,2.189l-13.837,2.441l1.914,10.85l1.384,7.844l1.347,7.639l3.757,21.305l36.397-6.418l21.668-3.82l-1.952-11.066
		L215.219,399.391 M83.538,405.742l2.166,12.279l2.443,13.854l2.73,15.48l1.063,6.021l10.945-1.932l30.962-5.459l16.153-2.85
		l-1.985-11.262l-1.309-7.424l-4.151-23.537l-0.952-5.406l-7.756,1.367l-22.906,4.039L83.538,405.742 M32.797,225.595l0.424,0.176
		l0.578,0.24l1.077,0.14l1.073-0.14l1.006-0.416l0.857-0.661l0.662-0.862l0.415-1.001l0.024-0.189l0.115-0.888l-0.14-1.074
		l-0.415-1.005l-0.662-0.858l-0.857-0.661l-1.006-0.415l-1.073-0.141l-1.077,0.141l-0.578,0.239l-0.424,0.176l-0.861,0.661
		l-0.661,0.858l-0.416,1.005l-0.14,1.074l0.115,0.888l0.024,0.189l0.416,1.001l0.661,0.862L32.797,225.595 M322.915,109.25
		l58.065-10.234l-6.824-38.684l-1.578-8.942l-50.731,8.942l-2.227,0.393l-5.107,0.9l5.107,28.943L322.915,109.25 M397.583,192.713
		l-16.04,2.827l-30.962,5.458l-11.063,1.95l2.15,12.192l5.463,30.962l0.789,4.472l2.66-0.469l22.713-4.003l8.249-1.453l24.438-4.307
		l-0.052-0.293l-4.392-24.909L397.583,192.713 M77.234,443.814l0.415-1.006l0.141-1.074l-0.141-1.076l-0.415-1.002l-0.032-0.041
		l-0.629-0.82l-0.862-0.662l-1.001-0.414l-1.078-0.141l-1.076,0.141l-0.632,0.262l-0.37,0.152l-0.861,0.662l-0.627,0.82
		l-0.031,0.041l-0.416,1.002l-0.144,1.076l0.144,1.074l0.416,1.006l0.658,0.857l0.861,0.658l0.37,0.154l0.632,0.266l1.076,0.143
		l1.078-0.143l1.001-0.42l0.862-0.658L77.234,443.814 M180.023,199.66l-2.731-15.48l-1.17-6.633l-4.291-24.329l-0.203-1.153
		l-6.54,1.153l-31.24,5.507l-20.284,3.575l3.859,21.88l4.542,25.754l11.883-2.095l30.962-5.458l15.221-2.683L180.023,199.66
		 M166.975,129.165l-1.22-6.909l-5.465-30.962l-1.722-9.755l-24.722,4.357l-30.616,5.397l-2.723,0.479l5.377,30.482l3.024,17.147
		l24.938-4.397l30.962-5.459L166.975,129.165 M288.657,54.673l-30.962,5.458l-1.137,0.2l-14.729,2.597l5.004,28.365l2.729,15.481
		l0.668,3.783l7.465-1.316l50.601-8.919l-7.058-39.991l-1.348-7.639L288.657,54.673 M381.022,29.792l0.521,0.68l0.141,0.183
		l0.86,0.657l1.003,0.416l1.077,0.144l1.076-0.144l1.002-0.416l0.861-0.657l0.662-0.862l0.174-0.423l0.237-0.578l0.145-1.077
		l-0.145-1.077l-0.411-1.001l-0.662-0.862l-0.861-0.657l-1.002-0.416l-1.076-0.145l-1.077,0.145l-1.003,0.416l-0.86,0.657
		l-0.141,0.183l-0.521,0.68l-0.417,1.001l-0.14,1.077l0.14,1.077l0.241,0.578L381.022,29.792 M168.071,31.358l-1.073-0.144
		l-1.077,0.144l-1.002,0.415l-0.109,0.084l-0.752,0.574l-0.662,0.861l-0.415,1.002l-0.14,1.077l0.14,1.077l0.415,1.002l0.662,0.861
		l0.752,0.574l0.109,0.084l1.002,0.415l1.077,0.144l1.073-0.144l1.006-0.415l0.857-0.658l0.662-0.861l0.141-0.341l0.274-0.661
		l0.144-1.077l-0.144-1.077l-0.415-1.002l-0.662-0.861l-0.857-0.658L168.071,31.358 M64.648,372.623L10,382.254l-3.413,0.602
		L10,402.215l4.985,28.277l56.938-10.041l1.126-0.197l-1.126-6.387L64.648,372.623 M102.885,183.388l-4.485,0.791l-26.477,4.669
		l-26.098,4.603l3.825,21.69l4.573,25.938l17.699-3.119l30.962-5.458l9.403-1.657l-0.039-0.223l-2.73-15.481l-5.462-30.962
		l-0.17-0.968L102.885,183.388 M225.886,46.57l-30.115,5.31l-27.946,4.926l0.623,3.526l5.461,30.962l2.318,13.142l19.544-3.446
		l30.962-5.46l7.559-1.332l-0.512-2.903l-5.465-30.962l-1.582-8.965L225.886,46.57 M443.467,38.924l-30.963,5.456l-2.669,0.471
		l-24.237,4.271l1.977,11.21l5.459,30.962l0.962,5.458l18.509-3.263l12.453-2.195l18.51-3.263l8.594-1.515l-4.619-26.185
		L443.66,38.89L443.467,38.924 M275.622,329.551l-17.927,3.16l-35.614,6.277l-4.524,0.799l2.59,14.682l2.73,15.482l3.081,17.473
		l31.737-5.594l26.328-4.643l-1.276-7.236l-5.461-30.963L275.622,329.551 M319.62,341.227l-28.061,4.947l4.191,23.777l4.207,23.863
		l19.662-3.467l38.403-6.775l-2.402-13.621l-5.462-30.963l-0.538-3.049l-17.302,3.049L319.62,341.227 M443.467,111.76l-30.963,5.458
		l-14.771,2.604l0.43,2.434l5.461,30.962l2.512,14.237l6.368-1.123l30.963-5.459l20.734-3.656l-0.706-3.999l-5.462-30.962
		l-2.234-12.669L443.467,111.76 M337.402,264.902l-17.782,3.137l-30.963,5.459l-9.32,1.643l0.34,1.926l5.461,30.961l1.69,9.586
		l0.911,5.162l0.918-0.162l30.963-5.461l25.883-4.563l0.301-0.055l-0.795-4.508l-5.462-30.961L337.402,264.902 M441.633,369.951
		l1.727,9.789l0.107-0.02l30.961-5.459l24.446-4.311l2.551-0.451l-8.401-47.633l-49.557,8.738l-8.508,1.5l1.213,6.883
		L441.633,369.951 M246.794,165.089l-2.094-11.872l-5.461-30.962l-0.847-4.804l-11.66,2.056l-15.583,2.748l-15.379,2.712
		l-15.443,2.724l1.772,10.045l2.73,15.481l3.899,22.106l7.041-1.241L246.794,165.089 M418.484,311.229l-0.05-0.283l-0.516-2.918
		l-5.458-30.961l-2.375-13.473l-28.543,5.035l-29.522,5.205l0.57,3.232l5.461,30.961l2.371,13.439l21.12-3.725l30.962-5.459
		L418.484,311.229 M193.021,199.66l2.731,15.481l0.019,0.107l5.442,30.854l0.02,0.105l0.059-0.01l0.541-0.096l55.862-9.851
		l1.603-0.282l-1.603-9.084l-6.8-38.542l-55.124,9.717l-2.94,0.519L193.021,199.66 M431.141,308.703l3.835-0.676l8.491-1.498
		l45.735-8.068l-3.772-21.395l-4.626-26.238l-37.337,6.584l-20.729,3.654l2.822,16l5.461,30.961L431.141,308.703 M41.725,170.195
		l30.198-5.325l27.862-4.913l-1.188-6.739l-2.052-11.634l-3.41-19.328l-1.751-9.925l-19.461,3.431l-36.842,6.494l-1.759,0.311
		L41.725,170.195 M196.569,293.563l-0.798,0.141l-30.962,5.461l-15.48,2.732l-10.825,1.908l0.745,4.223l7.657,43.408l48.865-8.613
		l9.199-1.623l-0.39-2.211l-5.461-30.961L196.569,293.563 M58.329,264.34l7.707,43.688l0.695,3.938l0,0l5.192-0.914l17.148-3.023
		l13.813-2.436l21.906-3.861l-1.613-9.141l-0.007-0.043l-0.436-2.471l-0.681-3.854l-0.25-1.418l-1.365-7.738l-4.051-22.961
		l-44.466,7.838L58.329,264.34 M268.754,215.141l3.277,18.583l2.186,12.379l1.02,5.78l13.42-2.367l19.363-3.413l11.6-2.045
		l13.681-2.411l-4.676-26.506l-2.73-15.481l-0.995-5.639l-5.279,0.931l-52.785,9.304L268.754,215.141 M418.639,237.81l24.828-4.376
		l30.961-5.457l2.275-0.401l-2.193-12.435l-5.461-30.962l-0.748-4.233l-0.088,0.016l-23.918,4.218l-0.828,0.146l-33.23,5.859
		l4.403,24.956L418.639,237.81 M192.233,270.488l-4.302-24.385l-4.1-23.24l-49.984,8.814l-8.077,1.424l2.292,13.002l5.457,30.963
		l0.328,1.859l0.317,1.801l15.164-2.672l5.607-0.988L192.233,270.488z"/>
</g>
</svg>
