<?xml version="1.0" encoding="utf-8"?>
<!-- Generator: Adobe Illustrator 16.0.0, SVG Export Plug-In . SVG Version: 6.00 Build 0)  -->
<!DOCTYPE svg PUBLIC "-//W3C//DTD SVG 1.1//EN" "http://www.w3.org/Graphics/SVG/1.1/DTD/svg11.dtd">
<svg version="1.1"
	 id="svg2" xmlns:svg="http://www.w3.org/2000/svg" xmlns:rdf="http://www.w3.org/1999/02/22-rdf-syntax-ns#" xmlns:dc="http://purl.org/dc/elements/1.1/" xmlns:inkscape="http://www.inkscape.org/namespaces/inkscape" xmlns:sodipodi="http://sodipodi.sourceforge.net/DTD/sodipodi-0.dtd" xmlns:cc="http://creativecommons.org/ns#" sodipodi:docname="atreus62_alps.svg" inkscape:version="0.91 r13725"
	 xmlns="http://www.w3.org/2000/svg" xmlns:xlink="http://www.w3.org/1999/xlink" x="0px" y="0px" width="500.89px"
	 height="500.281px" viewBox="0 0 500.89 500.281" enable-background="new 0 0 500.89 500.281" xml:space="preserve">
<sodipodi:namedview  inkscape:cy="297.63751" inkscape:cx="147.62325" guidetolerance="10" inkscape:zoom="0.34208704" showgrid="false" id="namedview3300" borderopacity="1" bordercolor="#666666" objecttolerance="10" gridtolerance="10" pagecolor="#ffffff" inkscape:window-width="1367" inkscape:pageshadow="2" inkscape:pageopacity="0" inkscape:current-layer="svg2" inkscape:window-maximized="0" inkscape:window-y="0" inkscape:window-x="0" inkscape:window-height="848">
	</sodipodi:namedview>
<polygon id="polygon2782" fill="none" stroke="#0000FF" points="123.843,348.695 167.392,341.019 161.091,305.281 117.542,312.962 
	"/>
<polygon id="polygon2784" fill="none" stroke="#0000FF" points="114.466,295.515 158.015,287.835 151.712,252.107 108.166,259.785 
	"/>
<polygon id="polygon2786" fill="none" stroke="#0000FF" points="105.087,242.338 148.638,234.659 142.337,198.925 98.789,206.604 
	"/>
<polygon id="polygon2788" fill="none" stroke="#0000FF" points="95.712,189.158 139.261,181.478 132.958,145.748 89.412,153.427 "/>
<polygon id="polygon2790" fill="none" stroke="#0000FF" points="133.375,401.597 176.921,393.917 170.623,358.185 127.074,365.863 
	"/>
<polygon id="polygon2792" fill="none" stroke="#0000FF" points="174.601,325.123 218.15,317.443 211.849,281.71 168.3,289.39 "/>
<polygon id="polygon2794" fill="none" stroke="#0000FF" points="165.046,272.08 208.597,264.4 202.296,228.67 158.748,236.351 "/>
<polygon id="polygon2796" fill="none" stroke="#0000FF" points="155.894,218.971 199.443,211.292 193.142,175.558 149.593,183.237 
	"/>
<polygon id="polygon2798" fill="none" stroke="#0000FF" points="146.103,166.059 189.652,158.379 183.349,122.648 139.802,130.328 
	"/>
<polygon id="polygon2800" fill="none" stroke="#0000FF" points="183.953,378.222 227.501,370.541 221.201,334.806 177.652,342.486 
	"/>
<polygon id="polygon2802" fill="none" stroke="#0000FF" points="224.724,299.082 268.273,291.402 261.972,255.667 218.421,263.347 
	"/>
<polygon id="polygon2804" fill="none" stroke="#0000FF" points="215.347,246.184 258.896,238.503 252.595,202.773 209.046,210.454 
	"/>
<polygon id="polygon2806" fill="none" stroke="#0000FF" points="205.97,193.005 249.519,185.327 243.218,149.592 199.669,157.271 
	"/>
<polygon id="polygon2808" fill="none" stroke="#0000FF" points="196.593,139.825 240.142,132.146 233.839,96.416 190.292,104.095 
	"/>
<polygon id="polygon2810" fill="none" stroke="#0000FF" points="233.892,352.121 277.441,344.441 271.14,308.707 227.589,316.386 
	"/>
<polygon id="polygon2812" fill="none" stroke="#0000FF" points="280.228,303.621 323.777,295.941 317.476,260.208 273.927,267.888 
	"/>
<polygon id="polygon2814" fill="none" stroke="#0000FF" points="270.851,250.441 314.4,242.763 308.099,207.032 264.548,214.711 "/>
<polygon id="polygon2816" fill="none" stroke="#0000FF" points="261.474,197.265 305.023,189.584 298.722,153.852 255.171,161.531 
	"/>
<polygon id="polygon2818" fill="none" stroke="#0000FF" points="252.097,144.418 295.646,136.74 289.343,101.008 245.794,108.687 
	"/>
<polygon id="polygon2820" fill="none" stroke="#0000FF" points="289.394,356.914 332.943,349.232 326.642,313.498 283.093,321.179 
	"/>
<polygon id="polygon2822" fill="none" stroke="#0000FF" points="334.742,302.642 378.291,294.962 371.99,259.228 328.441,266.908 
	"/>
<polygon id="polygon2824" fill="none" stroke="#0000FF" points="325.365,249.46 368.914,241.783 362.613,206.052 319.064,213.731 
	"/>
<polygon id="polygon2826" fill="none" stroke="#0000FF" points="315.988,196.285 359.537,188.604 353.236,152.872 309.687,160.55 
	"/>
<polygon id="polygon2828" fill="none" stroke="#0000FF" points="306.611,143.439 350.16,135.761 343.859,100.03 300.31,107.708 "/>
<polygon id="polygon2830" fill="none" stroke="#0000FF" points="343.91,355.935 387.457,348.253 381.158,312.519 337.609,320.199 
	"/>
<polygon id="polygon2832" fill="none" stroke="#0000FF" points="387.783,293.064 431.332,285.384 425.031,249.65 381.482,257.33 "/>
<polygon id="polygon2834" fill="none" stroke="#0000FF" points="378.406,239.885 421.955,232.206 415.654,196.475 372.105,204.155 
	"/>
<polygon id="polygon2836" fill="none" stroke="#0000FF" points="369.029,187.103 412.578,179.423 406.277,143.69 362.728,151.37 "/>
<polygon id="polygon2838" fill="none" stroke="#0000FF" points="359.925,134.062 403.474,126.383 397.171,90.653 353.625,98.331 "/>
<polygon id="polygon2840" fill="none" stroke="#0000FF" points="396.949,346.355 440.498,338.677 434.197,302.941 390.648,310.621 
	"/>
<polygon id="polygon2842" fill="none" stroke="#0000FF" points="75.658,384.431 119.207,376.75 112.906,341.017 69.357,348.693 "/>
<g>
	<path id="path1952_2_" inkscape:connector-curvature="0" fill="none" stroke="#0000FF" d="M126.001,439.158l336.623-67.99"/>
	<path fill="none" stroke="#0000FF" d="M39.775,439.634V52.572V439.634z"/>
	<polyline fill="none" stroke="#0000FF" points="39.775,439.634 121.765,439.632 123.9,439.529 123.9,439.531 126.003,439.16 
		462.625,371.167 464.666,370.535 466.611,369.654 466.611,369.656 468.429,368.537 468.429,368.535 470.095,367.195 
		470.095,367.197 471.574,365.662 471.578,365.66 472.857,363.949 473.914,362.093 474.726,360.117 475.285,358.056 475.285,358.06 
		475.583,355.945 475.582,355.943 475.613,353.806 475.615,353.808 475.376,351.687 425.113,66.625 424.611,64.55 423.851,62.553 
		422.847,60.667 421.617,58.921 420.179,57.346 420.177,57.346 418.548,55.962 416.763,54.792 414.841,53.854 412.82,53.167 
		412.822,53.167 410.73,52.736 408.601,52.572 	"/>
	<path fill="none" stroke="#0000FF" d="M39.775,52.572h368.826H39.775z"/>
</g>
<g id="Layer_2">
</g>
</svg>
