<?xml version="1.0" encoding="utf-8"?>
<!-- Generator: Adobe Illustrator 16.0.0, SVG Export Plug-In . SVG Version: 6.00 Build 0)  -->
<!DOCTYPE svg PUBLIC "-//W3C//DTD SVG 1.1//EN" "http://www.w3.org/Graphics/SVG/1.1/DTD/svg11.dtd">
<svg version="1.1"
	 id="svg2" xmlns:svg="http://www.w3.org/2000/svg" xmlns:rdf="http://www.w3.org/1999/02/22-rdf-syntax-ns#" xmlns:dc="http://purl.org/dc/elements/1.1/" xmlns:inkscape="http://www.inkscape.org/namespaces/inkscape" xmlns:sodipodi="http://sodipodi.sourceforge.net/DTD/sodipodi-0.dtd" xmlns:cc="http://creativecommons.org/ns#" sodipodi:docname="atreus62_alps.svg" inkscape:version="0.91 r13725"
	 xmlns="http://www.w3.org/2000/svg" xmlns:xlink="http://www.w3.org/1999/xlink" x="0px" y="0px" width="500.89px"
	 height="500.281px" viewBox="0 0 500.89 500.281" enable-background="new 0 0 500.89 500.281" xml:space="preserve">
<g>
	<path id="path1952_4_" inkscape:connector-curvature="0" fill="none" stroke="#0000FF" d="M81.854,503.875l449.469-90.782"/>
	<path fill="none" stroke="#0000FF" d="M-33.278,504.512V-12.304V504.512z"/>
	<polyline fill="none" stroke="#0000FF" points="-33.278,504.512 76.198,504.509 79.048,504.372 79.048,504.375 81.857,503.878 
		531.323,413.093 534.047,412.248 536.645,411.072 536.645,411.075 539.073,409.58 539.073,409.578 541.297,407.789 
		541.297,407.791 543.272,405.742 543.277,405.739 544.985,403.455 546.395,400.977 547.48,398.337 548.226,395.586 
		548.226,395.591 548.625,392.767 548.624,392.765 548.665,389.912 548.667,389.915 548.348,387.083 481.235,6.46 480.566,3.69 
		479.55,1.023 478.21,-1.495 476.567,-3.827 474.648,-5.93 474.645,-5.93 472.471,-7.777 470.086,-9.34 467.52,-10.591 
		464.821,-11.51 464.824,-11.51 462.031,-12.085 459.188,-12.304 	"/>
	<path fill="none" stroke="#0000FF" d="M-33.278-12.304h492.466H-33.278z"/>
</g>
<g id="Layer_2">
	
		<sodipodi:namedview  inkscape:cy="297.63751" inkscape:cx="147.62325" guidetolerance="10" inkscape:zoom="0.34208704" showgrid="false" id="namedview3300" borderopacity="1" bordercolor="#666666" objecttolerance="10" gridtolerance="10" pagecolor="#ffffff" inkscape:window-width="1367" inkscape:pageshadow="2" inkscape:pageopacity="0" inkscape:current-layer="svg2" inkscape:window-maximized="0" inkscape:window-y="0" inkscape:window-x="0" inkscape:window-height="848">
		</sodipodi:namedview>
	<polygon id="polygon2782" fill="none" stroke="#0000FF" points="79.226,382.892 137.292,372.658 128.89,325.007 70.825,335.25 	"/>
	<polygon id="polygon2784" fill="none" stroke="#0000FF" points="66.723,311.986 124.789,301.747 116.385,254.109 58.323,264.345 	
		"/>
	<polygon id="polygon2786" fill="none" stroke="#0000FF" points="54.218,241.083 112.286,230.844 103.885,183.2 45.82,193.437 	"/>
	<polygon id="polygon2788" fill="none" stroke="#0000FF" points="41.718,170.176 99.784,159.936 91.379,112.296 33.317,122.535 	"/>
	<polygon id="polygon2790" fill="none" stroke="#0000FF" points="91.934,453.429 149.997,443.189 141.598,395.546 83.534,405.783 	
		"/>
	<polygon id="polygon2792" fill="none" stroke="#0000FF" points="146.903,351.462 204.968,341.223 196.567,293.58 138.502,303.82 	
		"/>
	<polygon id="polygon2794" fill="none" stroke="#0000FF" points="134.164,280.739 192.231,270.5 183.831,222.86 125.765,233.1 	"/>
	<polygon id="polygon2796" fill="none" stroke="#0000FF" points="121.96,209.927 180.026,199.688 171.625,152.042 113.559,162.282 	
		"/>
	<polygon id="polygon2798" fill="none" stroke="#0000FF" points="108.906,139.377 166.971,129.138 158.567,81.498 100.504,91.736 	
		"/>
	<polygon id="polygon2800" fill="none" stroke="#0000FF" points="159.372,422.262 217.437,412.02 209.036,364.375 150.971,374.614 	
		"/>
	<polygon id="polygon2802" fill="none" stroke="#0000FF" points="213.734,316.742 271.799,306.501 263.398,258.856 205.331,269.095 
			"/>
	<polygon id="polygon2804" fill="none" stroke="#0000FF" points="201.231,246.21 259.296,235.97 250.895,188.331 192.831,198.571 	
		"/>
	<polygon id="polygon2806" fill="none" stroke="#0000FF" points="188.729,175.306 246.793,165.068 238.393,117.422 180.328,127.662 
			"/>
	<polygon id="polygon2808" fill="none" stroke="#0000FF" points="176.226,104.399 234.292,94.16 225.887,46.52 167.825,56.759 	"/>
	<polygon id="polygon2810" fill="none" stroke="#0000FF" points="225.958,387.46 284.023,377.22 275.622,329.575 217.554,339.814 	
		"/>
	<polygon id="polygon2812" fill="none" stroke="#0000FF" points="287.739,322.793 345.804,312.554 337.403,264.911 279.338,275.15 	
		"/>
	<polygon id="polygon2814" fill="none" stroke="#0000FF" points="275.237,251.888 333.301,241.65 324.901,194.008 266.833,204.248 	
		"/>
	<polygon id="polygon2816" fill="none" stroke="#0000FF" points="262.734,180.986 320.799,170.746 312.398,123.101 254.331,133.34 	
		"/>
	<polygon id="polygon2818" fill="none" stroke="#0000FF" points="250.231,110.524 308.296,100.286 299.893,52.644 241.828,62.881 	
		"/>
	<polygon id="polygon2820" fill="none" stroke="#0000FF" points="299.96,393.851 358.026,383.609 349.625,335.962 291.559,346.205 	
		"/>
	<polygon id="polygon2822" fill="none" stroke="#0000FF" points="360.424,321.489 418.489,311.25 410.088,263.603 352.023,273.843 	
		"/>
	<polygon id="polygon2824" fill="none" stroke="#0000FF" points="347.921,250.58 405.987,240.343 397.585,192.702 339.52,202.941 	
		"/>
	<polygon id="polygon2826" fill="none" stroke="#0000FF" points="335.418,179.679 393.484,169.437 385.083,121.794 327.018,132.033 
			"/>
	<polygon id="polygon2828" fill="none" stroke="#0000FF" points="322.917,109.218 380.981,98.98 372.581,51.339 314.515,61.578 	"/>
	<polygon id="polygon2830" fill="none" stroke="#0000FF" points="372.648,392.546 430.71,382.304 422.312,334.658 364.247,344.898 	
		"/>
	<polygon id="polygon2832" fill="none" stroke="#0000FF" points="431.145,308.718 489.21,298.478 480.809,250.833 422.745,261.072 	
		"/>
	<polygon id="polygon2834" fill="none" stroke="#0000FF" points="418.643,237.812 476.708,227.574 468.307,179.932 410.242,190.172 
			"/>
	<polygon id="polygon2836" fill="none" stroke="#0000FF" points="406.14,167.436 464.206,157.197 455.804,109.553 397.739,119.792 	
		"/>
	<polygon id="polygon2838" fill="none" stroke="#0000FF" points="394.002,96.714 452.067,86.477 443.664,38.836 385.601,49.074 	"/>
	<polygon id="polygon2840" fill="none" stroke="#0000FF" points="443.367,379.773 501.432,369.536 493.031,321.887 434.965,332.126 
			"/>
	<polygon id="polygon2842" fill="none" stroke="#0000FF" points="14.979,430.541 73.043,420.298 64.643,372.656 6.578,382.89 	"/>
</g>
<g>
	<path id="path1952_3_" inkscape:connector-curvature="0" fill="none" stroke="#0000FF" d="M74.387,514.82l468.554-94.637"/>
	<path fill="none" stroke="#0000FF" d="M-45.633,515.484V-23.277V515.484z"/>
	<polyline fill="none" stroke="#0000FF" points="-45.633,515.484 68.491,515.481 71.463,515.336 71.463,515.339 74.39,514.824 
		542.941,420.183 545.781,419.302 548.489,418.076 548.489,418.079 551.02,416.521 551.02,416.519 553.339,414.653 553.339,414.657 
		555.397,412.519 555.402,412.516 557.183,410.134 558.655,407.552 559.785,404.801 560.562,401.933 560.562,401.938 
		560.979,398.994 560.976,398.992 561.019,396.017 561.022,396.02 560.69,393.068 490.727,-3.715 490.028,-6.604 488.971,-9.385 
		487.574,-12.008 485.86,-14.438 483.86,-16.632 483.858,-16.632 481.589,-18.558 479.105,-20.187 476.43,-21.492 473.617,-22.449 
		473.62,-22.449 470.708,-23.049 467.745,-23.277 	"/>
	<path fill="none" stroke="#0000FF" d="M-45.633-23.277h513.378H-45.633z"/>
</g>
</svg>
