<?xml version="1.0" standalone="no"?>
<!DOCTYPE svg PUBLIC "-//W3C//DTD SVG 1.1//EN"
  "http://www.w3.org/Graphics/SVG/1.1/DTD/svg11.dtd">
<svg width="155.75mm" height="138.51199340820312mm" viewBox="-77.875 -69.25599670410156 155.75 138.51199340820312" xmlns="http://www.w3.org/2000/svg" version="1.1">
	<title>svgOutput</title>
	<desc>made with tinkercad</desc>
<path d="M 66.05596923828125 45.36751937866211 L 65.53600311279297 45.47251510620117 L 63.40829086303711 45.90215301513672 L 57.34400177001953 47.12675476074219 L 50.30696105957031 48.547786712646484 L 49.152000427246094 48.7810173034668 L 47.31486892700195 49.152000427246094 L 32.768001556396484 52.089542388916016 L 3.9128548085009054e-14 58.70659255981445 L -15.34945297241211 61.80620574951172 L -16.384000778198242 62.01512145996094 L -25.13028335571289 63.781333923339844 L -25.282970428466797 63.812164306640625 L -32.768001556396484 65.32368469238281 L -33.819400787353516 65.53600311279297 L -37.538108825683594 66.28694915771484 L -37.685035705566406 66.31663513183594 L -40.337059020996094 66.85216522216797 L -40.480987548828125 66.88125610351562 L -43.13541030883789 67.41738891601562 L -43.28248596191406 67.4469223022461 L -45.9237174987793 67.98035430908203 L -46.07079315185547 68.01004028320312 L -46.457000732421875 68.08799743652344 L -46.45743942260742 68.08808135986328 L -47.198001861572266 68.21900177001953 L -47.95199966430664 68.25399780273438 L -49.152000427246094 68.25399780273438 L -50.05289840698242 68.25399780273438 L -61.9648551940918 68.25482177734375 L -62.98084259033203 68.25489044189453 L -65.53600311279297 68.25507354736328 L -74.63961791992188 68.25569915771484 L -74.79193878173828 68.25569915771484 L -74.9327621459961 68.25572204589844 L -76.875 68.25599670410156 L -76.875 68.25585174560547 L -76.875 68.25569915771484 L -76.875 65.53600311279297 L -76.875 35.358001708984375 L -76.875 34.34299850463867 L -76.875 4.440892164675075e-17 L -76.875 -32.768001556396484 L -76.875 -65.53600311279297 L -76.875 -68.25599670410156 L -65.53600311279297 -68.25599670410156 L -48.577999114990234 -68.25599670410156 L -32.768001556396484 -68.25599670410156 L -9.91443157196045 -68.25599670410156 L -8.898421287536621 -68.25599670410156 L 0 -68.25599670410156 L 9.390605926513672 -68.25599670410156 L 10.40456485748291 -68.25599670410156 L 32.768001556396484 -68.25599670410156 L 48.00967025756836 -68.25599670410156 L 49.025001525878906 -68.25599670410156 L 49.152000427246094 -68.25599670410156 L 53.23500061035156 -68.25599670410156 L 53.986000061035156 -68.197998046875 L 54.721458435058594 -68.04652404785156 L 54.7239990234375 -68.0459976196289 L 54.722999572753906 -68.0459976196289 L 55.43600082397461 -67.80400085449219 L 56.11399841308594 -67.4729995727539 L 56.740264892578125 -67.06244659423828 L 56.74399948120117 -67.05999755859375 L 57.23194122314453 -66.6451644897461 L 57.31814956665039 -66.5719985961914 L 57.7499885559082 -66.10021209716797 L 57.82600021362305 -66.01699829101562 L 58.164337158203125 -65.53600311279297 L 58.2599983215332 -65.4000015258789 L 58.61399841308594 -64.73600006103516 L 58.88199996948242 -64.03199768066406 L 59.060001373291016 -63.29999923706055 L 60.110408782958984 -57.34400177001953 L 61.55515670776367 -49.152000427246094 L 62.43476104736328 -44.16448974609375 L 62.999908447265625 -40.959999084472656 L 64.44465637207031 -32.768001556396484 L 65.53600311279297 -26.57990074157715 L 70.22366333007812 4.440892164675075e-17 L 76.0026626586914 32.768001556396484 L 76.79100036621094 37.237998962402344 L 76.87409973144531 37.978004455566406 L 76.875 37.986000061035156 L 76.8740005493164 37.98500061035156 L 76.86299896240234 38.73899841308594 L 76.86399841308594 38.7400016784668 L 76.75987243652344 39.47978210449219 L 76.75900268554688 39.486000061035156 L 76.75900268554688 39.483001708984375 L 76.56099700927734 40.21099853515625 L 76.2750015258789 40.90700149536133 L 76.24486541748047 40.959999084472656 L 75.9020004272461 41.5629997253418 L 75.45460510253906 42.16117858886719 L 75.45099639892578 42.16600036621094 L 75.4489974975586 42.16699981689453 L 74.93163299560547 42.704227447509766 L 74.9280014038086 42.70800018310547 L 74.42815399169922 43.10923385620117 L 74.33999633789062 43.18014907836914 L 73.79510498046875 43.516780853271484 L 73.72799682617188 43.55802536010742 L 73.6989974975586 43.57585144042969 L 73.59615325927734 43.62247848510742 L 73.01300048828125 43.88600158691406 L 72.29299926757812 44.108001708984375 L 71.79374694824219 44.208900451660156 L 71.64667510986328 44.23858642578125 L 69.63200378417969 44.64539337158203 L 68.99674987792969 44.77366638183594 L 68.84982299804688 44.80335235595703 L 67.59855651855469 45.055999755859375 L 66.9399185180664 45.18899154663086 L 66.20274353027344 45.337833404541016 L 66.15057373046875 45.348384857177734 L 66.05596923828125 45.36751937866211 M -5.544466495513916 43.007999420166016 L -5.514999866485596 42.7869987487793 L -5.552999973297119 42.50299835205078 L -5.663000106811523 42.237998962402344 L -5.8379998207092285 42.0099983215332 L -6.065000057220459 41.834999084472656 L -6.144000053405762 41.802330017089844 L -6.330999851226807 41.724998474121094 L -6.614999771118164 41.6879997253418 L -6.900000095367432 41.724998474121094 L -7.164999961853027 41.834999084472656 L -7.39300012588501 42.0099983215332 L -7.567999839782715 42.237998962402344 L -7.677999973297119 42.50299835205078 L -7.715000152587891 42.7869987487793 L -7.686308860778809 43.007999420166016 L -7.677999973297119 43.071998596191406 L -7.567999839782715 43.33700180053711 L -7.39300012588501 43.564998626708984 L -7.164999961853027 43.7400016784668 L -6.900000095367432 43.849998474121094 L -6.614999771118164 43.88600158691406 L -6.330999851226807 43.849998474121094 L -6.065000057220459 43.7400016784668 L -5.8379998207092285 43.564998626708984 L -5.663000106811523 43.33700180053711 L -5.552999973297119 43.071998596191406 L -5.544466495513916 43.007999420166016 M -32.922000885009766 13.38700008392334 L -32.768001556396484 13.407533645629883 L -32.637001037597656 13.425000190734863 L -32.35200119018555 13.38700008392334 L -32.08700180053711 13.279000282287598 L -31.858999252319336 13.102999687194824 L -31.684999465942383 12.875 L -31.575000762939453 12.609999656677246 L -31.53700065612793 12.326000213623047 L -31.54206657409668 12.288000106811523 L -31.575000762939453 12.041000366210938 L -31.684999465942383 11.774999618530273 L -31.858999252319336 11.54800033569336 L -32.08700180053711 11.373000144958496 L -32.35200119018555 11.262999534606934 L -32.637001037597656 11.225000381469727 L -32.768001556396484 11.242466926574707 L -32.922000885009766 11.262999534606934 L -33.1870002746582 11.373000144958496 L -33.415000915527344 11.54800033569336 L -33.59000015258789 11.774999618530273 L -33.70000076293945 12.041000366210938 L -33.7320671081543 12.288000106811523 L -33.73699951171875 12.326000213623047 L -33.70000076293945 12.609999656677246 L -33.59000015258789 12.875 L -33.415000915527344 13.102999687194824 L -33.1870002746582 13.279000282287598 L -32.922000885009766 13.38700008392334 M 15.877148628234863 -24.576000213623047 L 14.472999572753906 -32.5359992980957 L 0 -29.984878540039062 L -0.8899999856948853 -29.827999114990234 L 0 -24.782264709472656 L 0.036382291465997696 -24.576000213623047 L 1.3329999446868896 -17.225000381469727 L 16.384000778198242 -19.878984451293945 L 16.695999145507812 -19.93400001525879 L 16.599685668945312 -20.479999542236328 L 16.384000778198242 -21.702701568603516 L 15.877148628234863 -24.576000213623047 M 18.507999420166016 -16.166000366210938 L 18.675325393676758 -16.384000778198242 L 18.683000564575195 -16.393999099731445 L 18.792999267578125 -16.659000396728516 L 18.83099937438965 -16.944000244140625 L 18.792999267578125 -17.22800064086914 L 18.683000564575195 -17.493999481201172 L 18.507999420166016 -17.72100067138672 L 18.43199920654297 -17.779590606689453 L 18.2810001373291 -17.895999908447266 L 18.014999389648438 -18.006000518798828 L 17.731000900268555 -18.04400062561035 L 17.445999145507812 -18.006000518798828 L 17.180999755859375 -17.895999908447266 L 16.952999114990234 -17.72100067138672 L 16.777999877929688 -17.493999481201172 L 16.667999267578125 -17.22800064086914 L 16.631000518798828 -16.944000244140625 L 16.667999267578125 -16.659000396728516 L 16.777999877929688 -16.393999099731445 L 16.785675048828125 -16.384000778198242 L 16.952999114990234 -16.166000366210938 L 17.180999755859375 -15.991000175476074 L 17.445999145507812 -15.881999969482422 L 17.731000900268555 -15.843999862670898 L 18.014999389648438 -15.881999969482422 L 18.2810001373291 -15.991000175476074 L 18.43199920654297 -16.107410430908203 L 18.507999420166016 -16.166000366210938 M 32.768001556396484 25.325925827026367 L 28.19099998474121 26.132999420166016 L 29.361324310302734 32.768001556396484 L 30.413999557495117 38.736000061035156 L 32.768001556396484 38.320884704589844 L 40.959999084472656 36.87627410888672 L 41.02960205078125 36.86399841308594 L 45.7760009765625 36.027000427246094 L 45.76255416870117 35.95073318481445 L 45.201416015625 32.768001556396484 L 43.75710678100586 24.576000213623047 L 43.55400085449219 23.423999786376953 L 40.959999084472656 23.881406784057617 L 37.020896911621094 24.576000213623047 L 32.768001556396484 25.325925827026367 M 3.7320001125335693 15.97700023651123 L 2.359048366546631 8.192000389099121 L 1.6366835832595825 4.0960001945495605 L 1.5089999437332153 3.371999979019165 L 0 3.638068914413452 L -13.854999542236328 6.080999851226807 L -13.48250961303711 8.192000389099121 L -12.037015914916992 16.384000778198242 L -11.630999565124512 18.684999465942383 L 0 16.634830474853516 L 1.4230114221572876 16.384000778198242 L 3.7320001125335693 15.97700023651123 M 65.72799682617188 37.75899887084961 L 65.5530014038086 37.53099822998047 L 65.53600311279297 37.51802444458008 L 65.32499694824219 37.356998443603516 L 65.05999755859375 37.24700164794922 L 64.7750015258789 37.20899963378906 L 64.48999786376953 37.24700164794922 L 64.2249984741211 37.356998443603516 L 63.99700164794922 37.53099822998047 L 63.823001861572266 37.75899887084961 L 63.7130012512207 38.02399826049805 L 63.67499923706055 38.308998107910156 L 63.7130012512207 38.59400177001953 L 63.823001861572266 38.858001708984375 L 63.86402893066406 38.9119987487793 L 63.99700164794922 39.08700180053711 L 64.2249984741211 39.26100158691406 L 64.48999786376953 39.37099838256836 L 64.7750015258789 39.409000396728516 L 65.05999755859375 39.37099838256836 L 65.32499694824219 39.26100158691406 L 65.53600311279297 39.0999755859375 L 65.5530014038086 39.08700180053711 L 65.68673706054688 38.9119987487793 L 65.72799682617188 38.858001708984375 L 65.83799743652344 38.59400177001953 L 65.875 38.308998107910156 L 65.83799743652344 38.02399826049805 L 65.72799682617188 37.75899887084961 M 24.576000213623047 -18.278446197509766 L 32.768001556396484 -19.722965240478516 L 35.926998138427734 -20.280000686645508 L 35.891719818115234 -20.479999542236328 L 35.16918182373047 -24.576000213623047 L 33.7241096496582 -32.768001556396484 L 33.70399856567383 -32.88199996948242 L 33.057254791259766 -32.768001556396484 L 32.768001556396484 -32.71701431274414 L 18.340999603271484 -30.173999786376953 L 19.328411102294922 -24.576000213623047 L 20.050891876220703 -20.479999542236328 L 20.41213035583496 -18.43199920654297 L 20.479999542236328 -18.047225952148438 L 20.56399917602539 -17.570999145507812 L 24.576000213623047 -18.278446197509766 M -31.856000900268555 33.47600173950195 L -31.980852127075195 32.768001556396484 L -32.7382926940918 28.472768783569336 L -32.768001556396484 28.30430793762207 L -34.07899856567383 20.8700008392334 L -49.152000427246094 23.52803611755371 L -49.441001892089844 23.57900047302246 L -49.265235900878906 24.576000213623047 L -49.152000427246094 25.218313217163086 L -47.821041107177734 32.768001556396484 L -47.21900177001953 36.18299865722656 L -32.768001556396484 33.636695861816406 L -31.856000900268555 33.47600173950195 M -11.238465309143066 40.556915283203125 L -12.612107276916504 32.768001556396484 L -12.87399959564209 31.283000946044922 L -16.384000778198242 31.902156829833984 L -21.292470932006836 32.768001556396484 L -24.576000213623047 33.347206115722656 L -28.23699951171875 33.99300003051758 L -27.730634689331055 36.86399841308594 L -27.36461639404297 38.93925857543945 L -27.00821304321289 40.959999084472656 L -26.013999938964844 46.59700012207031 L -16.384000778198242 44.8989143371582 L -10.651000022888184 43.88800048828125 L -11.167377471923828 40.959999084472656 L -11.238465309143066 40.556915283203125 M -46.07899856567383 42.237998962402344 L -45.505985260009766 45.48663330078125 L -44.85946273803711 49.152000427246094 L -44.13698196411133 53.24800109863281 L -43.85599899291992 54.840999603271484 L -40.959999084472656 54.33030700683594 L -32.768001556396484 52.88569641113281 L -28.493999481201172 52.13199996948242 L -29.019437789916992 49.152000427246094 L -29.3657283782959 47.188018798828125 L -30.4638614654541 40.959999084472656 L -30.715999603271484 39.529998779296875 L -32.768001556396484 39.891700744628906 L -38.82866287231445 40.959999084472656 L -46.07899856567383 42.237998962402344 M -59.50400161743164 -5.426000118255615 L -59.391998291015625 -5.379509449005127 L -59.23899841308594 -5.315999984741211 L -58.95399856567383 -5.2789998054504395 L -58.66999816894531 -5.315999984741211 L -58.40399932861328 -5.426000118255615 L -58.176998138427734 -5.60099983215332 L -58.00199890136719 -5.828999996185303 L -57.891998291015625 -6.093999862670898 L -57.8855094909668 -6.144000053405762 L -57.85499954223633 -6.379000186920166 L -57.891998291015625 -6.663000106811523 L -58.00199890136719 -6.928999900817871 L -58.176998138427734 -7.156000137329102 L -58.40399932861328 -7.330999851226807 L -58.66999816894531 -7.440999984741211 L -58.95399856567383 -7.478000164031982 L -59.23899841308594 -7.440999984741211 L -59.391998291015625 -7.377490520477295 L -59.50400161743164 -7.330999851226807 L -59.731998443603516 -7.156000137329102 L -59.90700149536133 -6.928999900817871 L -60.016998291015625 -6.663000106811523 L -60.05400085449219 -6.379000186920166 L -60.02349090576172 -6.144000053405762 L -60.016998291015625 -6.093999862670898 L -59.90700149536133 -5.828999996185303 L -59.731998443603516 -5.60099983215332 L -59.50400161743164 -5.426000118255615 M 17.256000518798828 -36.20899963378906 L 32.61899948120117 -38.91699981689453 L 30.813396453857422 -49.152000427246094 L 30.395999908447266 -51.518001556396484 L 16.973230361938477 -49.152000427246094 L 16.384000778198242 -49.04813766479492 L 15.032999992370605 -48.810001373291016 L 16.384000778198242 -41.15190124511719 L 17.256000518798828 -36.20899963378906 M 37.012001037597656 -14.12600040435791 L 32.768001556396484 -13.377920150756836 L 24.576000213623047 -11.933935165405273 L 21.64900016784668 -11.418000221252441 L 22.21811294555664 -8.192000389099121 L 23.663301467895508 4.440892164675075e-17 L 23.871999740600586 1.1829999685287476 L 24.576000213623047 1.0589452981948853 L 30.585426330566406 4.440892164675075e-17 L 32.768001556396484 -0.3846000432968139 L 39.23400115966797 -1.5240000486373901 L 39.220375061035156 -1.6012778282165527 L 38.05828857421875 -8.192000389099121 L 37.012001037597656 -14.12600040435791 M -47.74700164794922 52.31100082397461 L -47.637001037597656 52.04499816894531 L -47.599998474121094 51.76100158691406 L -47.637001037597656 51.47600173950195 L -47.74700164794922 51.21099853515625 L -47.75544357299805 51.20000076293945 L -47.922000885009766 50.983001708984375 L -48.150001525878906 50.80799865722656 L -48.415000915527344 50.698001861572266 L -48.70000076293945 50.6609992980957 L -48.98500061035156 50.698001861572266 L -49.152000427246094 50.7673225402832 L -49.25 50.80799865722656 L -49.47800064086914 50.983001708984375 L -49.64360427856445 51.20000076293945 L -49.652000427246094 51.21099853515625 L -49.762001037597656 51.47600173950195 L -49.79999923706055 51.76100158691406 L -49.762001037597656 52.04499816894531 L -49.652000427246094 52.31100082397461 L -49.47800064086914 52.53799819946289 L -49.25 52.71200180053711 L -49.152000427246094 52.753047943115234 L -48.98500061035156 52.823001861572266 L -48.70000076293945 52.861000061035156 L -48.415000915527344 52.823001861572266 L -48.150001525878906 52.71200180053711 L -47.922000885009766 52.53799819946289 L -47.74700164794922 52.31100082397461 M -20.550764083862305 -12.288000106811523 L -21.273242950439453 -16.384000778198242 L -21.582801818847656 -18.139005661010742 L -22.718202590942383 -24.576000213623047 L -22.77199935913086 -24.881000518798828 L -24.502323150634766 -24.576000213623047 L -32.768001556396484 -23.119028091430664 L -38.1349983215332 -22.17300033569336 L -37.11389923095703 -16.384000778198242 L -35.9119987487793 -9.569999694824219 L -32.768001556396484 -10.124185562133789 L -24.576000213623047 -11.568170547485352 L -20.548999786376953 -12.277999877929688 L -20.550764083862305 -12.288000106811523 M -24.003000259399414 -30.940000534057617 L -24.32563018798828 -32.768001556396484 L -25.771469116210938 -40.959999084472656 L -26.226999282836914 -43.54100036621094 L -32.768001556396484 -42.38795852661133 L -40.868553161621094 -40.959999084472656 L -41.5890007019043 -40.83300018310547 L -40.16632843017578 -32.768001556396484 L -39.36600112915039 -28.231000900268555 L -32.768001556396484 -29.39444351196289 L -24.576000213623047 -30.838960647583008 L -24.003000259399414 -30.940000534057617 M 8.192000389099121 -50.64909744262695 L 0 -49.205020904541016 L -0.3007717728614807 -49.152000427246094 L -4.197999954223633 -48.46500015258789 L -2.8741137981414795 -40.959999084472656 L -2.1515769958496094 -36.86399841308594 L -1.975000023841858 -35.862998962402344 L 0 -36.21112823486328 L 13.387999534606934 -38.57099914550781 L 11.520666122436523 -49.152000427246094 L 11.163999557495117 -51.17300033569336 L 8.192000389099121 -50.64909744262695 M 32.630001068115234 -57.231998443603516 L 32.768001556396484 -57.05220413208008 L 32.80500030517578 -57.00400161743164 L 33.03300094604492 -56.83000183105469 L 33.29800033569336 -56.720001220703125 L 33.58300018310547 -56.68199920654297 L 33.86800003051758 -56.720001220703125 L 34.132999420166016 -56.83000183105469 L 34.361000061035156 -57.00400161743164 L 34.5359992980957 -57.231998443603516 L 34.582069396972656 -57.34400177001953 L 34.64500045776367 -57.49700164794922 L 34.68299865722656 -57.78200149536133 L 34.64500045776367 -58.06700134277344 L 34.5359992980957 -58.332000732421875 L 34.361000061035156 -58.560001373291016 L 34.132999420166016 -58.73400115966797 L 33.86800003051758 -58.84400177001953 L 33.58300018310547 -58.88199996948242 L 33.29800033569336 -58.84400177001953 L 33.03300094604492 -58.73400115966797 L 32.80500030517578 -58.560001373291016 L 32.768001556396484 -58.51179504394531 L 32.630001068115234 -58.332000732421875 L 32.52000045776367 -58.06700134277344 L 32.483001708984375 -57.78200149536133 L 32.52000045776367 -57.49700164794922 L 32.5835075378418 -57.34400177001953 L 32.630001068115234 -57.231998443603516 M -23.71299934387207 -56.81800079345703 L -23.996999740600586 -56.85599899291992 L -24.281999588012695 -56.81800079345703 L -24.547000885009766 -56.70800018310547 L -24.576000213623047 -56.68586730957031 L -24.774999618530273 -56.534000396728516 L -24.950000762939453 -56.305999755859375 L -25.059999465942383 -56.04100036621094 L -25.097000122070312 -55.75600051879883 L -25.059999465942383 -55.47100067138672 L -24.950000762939453 -55.20600128173828 L -24.774999618530273 -54.97800064086914 L -24.576000213623047 -54.82612991333008 L -24.547000885009766 -54.80400085449219 L -24.281999588012695 -54.694000244140625 L -23.996999740600586 -54.65599822998047 L -23.71299934387207 -54.694000244140625 L -23.44700050354004 -54.80400085449219 L -23.219999313354492 -54.97800064086914 L -23.045000076293945 -55.20600128173828 L -23.007640838623047 -55.29600143432617 L -22.934999465942383 -55.47100067138672 L -22.89699935913086 -55.75600051879883 L -22.934999465942383 -56.04100036621094 L -23.045000076293945 -56.305999755859375 L -23.219999313354492 -56.534000396728516 L -23.44700050354004 -56.70800018310547 L -23.71299934387207 -56.81800079345703 M -51.07699966430664 33.474998474121094 L -65.53600311279297 36.02288055419922 L -66.43900299072266 36.18199920654297 L -65.53600311279297 41.30414581298828 L -64.21700286865234 48.7859992980957 L -49.152000427246094 46.129547119140625 L -48.854000091552734 46.07699966430664 L -49.152000427246094 44.387664794921875 L -51.07699966430664 33.474998474121094 M -40.959999084472656 -16.59326934814453 L -42.146705627441406 -16.384000778198242 L -49.152000427246094 -15.148656845092773 L -56.05699920654297 -13.930999755859375 L -55.04509353637695 -8.192000389099121 L -53.834999084472656 -1.3289999961853027 L -49.152000427246094 -2.15446138381958 L -40.959999084472656 -3.5984461307525635 L -38.47200012207031 -4.0370001792907715 L -38.48240661621094 -4.0960001945495605 L -39.20488739013672 -8.192000389099121 L -40.649845123291016 -16.384000778198242 L -40.69499969482422 -16.639999389648438 L -40.959999084472656 -16.59326934814453 M -8.416000366210938 -52.792999267578125 L -16.384000778198242 -51.38840866088867 L -23.777999877929688 -50.084999084472656 L -23.613418579101562 -49.152000427246094 L -22.168344497680664 -40.959999084472656 L -21.55500030517578 -37.483001708984375 L -16.384000778198242 -38.39481735229492 L -8.192000389099121 -39.83933639526367 L -6.191999912261963 -40.19200134277344 L -6.327547550201416 -40.959999084472656 L -7.773385524749756 -49.152000427246094 L -8.192000389099121 -51.523834228515625 L -8.416000366210938 -52.792999267578125 M 49.152000427246094 -54.81601333618164 L 40.959999084472656 -53.372467041015625 L 40.25365447998047 -53.24800109863281 L 33.840999603271484 -52.11800003051758 L 34.36396789550781 -49.152000427246094 L 35.80839157104492 -40.959999084472656 L 36.0629997253418 -39.51599884033203 L 40.959999084472656 -40.379180908203125 L 44.255088806152344 -40.959999084472656 L 49.152000427246094 -41.82316589355469 L 51.42599868774414 -42.2239990234375 L 50.203800201416016 -49.152000427246094 L 49.202999114990234 -54.82500076293945 L 49.152000427246094 -54.81601333618164 M 4.743000030517578 22.07900047302246 L 0 22.915037155151367 L -9.422956466674805 24.576000213623047 L -10.619999885559082 24.78700065612793 L -9.934792518615723 28.672000885009766 L -9.212370872497559 32.768001556396484 L -8.397000312805176 37.39099884033203 L 0 35.91088104248047 L 6.966000080108643 34.68299865722656 L 6.628246307373047 32.768001556396484 L 5.1834025382995605 24.576000213623047 L 4.743000030517578 22.07900047302246 M 16.384000778198242 25.168304443359375 L 8.960000038146973 26.476999282836914 L 10.06897258758545 32.768001556396484 L 11.182000160217285 39.082000732421875 L 16.384000778198242 38.16437911987305 L 26.545000076293945 36.37200164794922 L 25.909303665161133 32.768001556396484 L 24.464344024658203 24.576000213623047 L 24.32200050354004 23.768999099731445 L 19.744033813476562 24.576000213623047 L 16.384000778198242 25.168304443359375 M 49.152000427246094 -35.544837951660156 L 40.959999084472656 -34.100852966308594 L 37.051998138427734 -33.4119987487793 L 37.165592193603516 -32.768001556396484 L 38.61054992675781 -24.576000213623047 L 39.275001525878906 -20.80900001525879 L 40.959999084472656 -21.106121063232422 L 49.152000427246094 -22.55063819885254 L 54.63800048828125 -23.51799964904785 L 54.45136642456055 -24.576000213623047 L 53.00629425048828 -32.768001556396484 L 52.415000915527344 -36.119998931884766 L 49.152000427246094 -35.544837951660156 M 21.089000701904297 4.973999977111816 L 16.384000778198242 5.803645610809326 L 8.192000389099121 7.248163223266602 L 5.72599983215332 7.683000087738037 L 5.8157806396484375 8.192000389099121 L 7.260739803314209 16.384000778198242 L 7.708094120025635 18.920217514038086 L 7.948999881744385 20.285999298095703 L 8.192000389099121 20.24315071105957 L 16.384000778198242 18.798633575439453 L 23.2322940826416 17.591054916381836 L 23.312000274658203 17.57699966430664 L 23.10157012939453 16.384000778198242 L 21.656612396240234 8.192000389099121 L 21.089000701904297 4.973999977111816 M 48.66716003417969 32.768001556396484 L 49.124000549316406 35.358001708984375 L 49.152000427246094 35.35306167602539 L 57.34400177001953 33.908546447753906 L 63.81214141845703 32.768001556396484 L 64.48699951171875 32.64899826049805 L 62.263999938964844 20.04599952697754 L 49.152000427246094 22.358074188232422 L 46.9010009765625 22.7549991607666 L 47.222198486328125 24.576000213623047 L 48.66716003417969 32.768001556396484 M -2.884000062942505 -21.434999465942383 L -3.437986373901367 -24.576000213623047 L -4.882830619812012 -32.768001556396484 L -5.10699987411499 -34.03900146484375 L -8.192000389099121 -33.49501419067383 L -12.314963340759277 -32.768001556396484 L -16.384000778198242 -32.05049514770508 L -20.469999313354492 -31.329999923706055 L -20.00116539001465 -28.672000885009766 L -19.278684616088867 -24.576000213623047 L -18.246999740600586 -18.726999282836914 L -16.384000778198242 -19.055387496948242 L -2.884000062942505 -21.434999465942383 M 42.54199981689453 17.231000900268555 L 42.5287971496582 17.156124114990234 L 42.392669677734375 16.384000778198242 L 40.948360443115234 8.192000389099121 L 40.31999969482422 4.627999782562256 L 32.768001556396484 5.959664821624756 L 24.957000732421875 7.336999893188477 L 25.107810974121094 8.192000389099121 L 26.55276870727539 16.384000778198242 L 27.18000030517578 19.940000534057617 L 32.768001556396484 18.954587936401367 L 40.959999084472656 17.509977340698242 L 42.54199981689453 17.231000900268555 M -17.111549377441406 -12.288000106811523 L -16.389013290405273 -8.192000389099121 L -16.384000778198242 -8.163583755493164 L -14.943939208984375 4.440892164675075e-17 L -14.939000129699707 0.028000000864267394 L -14.923543930053711 0.025274664163589523 L -14.7802095413208 4.440892164675075e-17 L 0 -2.6062350273132324 L 0.42399999499320984 -2.680999994277954 L 1.4781725487256485e-16 -5.084429740905762 L -1.7990000247955322 -15.281999588012695 L -16.384000778198242 -12.711135864257812 L -17.16200065612793 -12.574000358581543 L -17.111549377441406 -12.288000106811523 M 45.89099884033203 16.562999725341797 L 46.90568542480469 16.384000778198242 L 49.152000427246094 15.9877290725708 L 61.25299835205078 13.852999687194824 L 60.25492477416992 8.192000389099121 L 59.03099822998047 1.25 L 49.152000427246094 2.9919912815093994 L 43.667999267578125 3.9590001106262207 L 44.41458511352539 8.192000389099121 L 45.85942840576172 16.384000778198242 L 45.89099884033203 16.562999725341797 M -57.141998291015625 -20.083999633789062 L -49.152000427246094 -21.492990493774414 L -41.779998779296875 -22.792999267578125 L -42.094547271728516 -24.576000213623047 L -42.6375732421875 -27.654115676879883 L -43.53973388671875 -32.768001556396484 L -44.00299835205078 -35.39400100708008 L -49.152000427246094 -34.4863395690918 L -58.89982986450195 -32.768001556396484 L -59.3650016784668 -32.68600082397461 L -57.141998291015625 -20.083999633789062 M -16.17300033569336 12.557000160217285 L -16.384000778198242 12.594220161437988 L -24.576000213623047 14.039271354675293 L -28.672000885009766 14.761796951293945 L -31.535999298095703 15.267000198364258 L -31.338960647583008 16.384000778198242 L -29.312999725341797 27.868999481201172 L -16.384000778198242 25.590036392211914 L -13.949999809265137 25.160999298095703 L -14.053177833557129 24.576000213623047 L -15.498022079467773 16.384000778198242 L -16.17300033569336 12.557000160217285 M -52.749000549316406 4.824999809265137 L -50.70982360839844 16.384000778198242 L -50.5260009765625 17.426000595092773 L -50.52574157714844 17.425954818725586 L -49.152000427246094 17.183792114257812 L -44.61492156982422 16.384000778198242 L -40.959999084472656 15.739713668823242 L -35.16400146484375 14.718000411987305 L -35.59067916870117 12.29938793182373 L -35.59268569946289 12.288000106811523 L -35.70798110961914 11.634464263916016 L -35.88788604736328 10.614686965942383 L -35.953983306884766 10.239999771118164 L -36.31528091430664 8.192000389099121 L -37.387001037597656 2.117000102996826 L -49.152000427246094 4.190924167633057 L -52.749000549316406 4.824999809265137 M 2.9260740280151367 -8.192000389099121 L 3.793478012084961 -3.275149345397949 L 4.371262073516846 4.440892164675075e-17 L 4.640999794006348 1.5290000438690186 L 8.192000389099121 0.9030735492706299 L 13.315308570861816 4.440892164675075e-17 L 16.384000778198242 -0.540911078453064 L 20.003999710083008 -1.1790000200271606 L 18.766803741455078 -8.192000389099121 L 18.04421043395996 -12.288000106811523 L 17.7810001373291 -13.779999732971191 L 16.384000778198242 -13.533754348754883 L 2.4179999828338623 -11.071999549865723 L 2.9260740280151367 -8.192000389099121 M 42.58300018310547 -2.194000005722046 L 49.152000427246094 -3.3519022464752197 L 57.34400177001953 -4.795886993408203 L 57.94599914550781 -4.9019999504089355 L 57.36564254760742 -8.192000389099121 L 55.920570373535156 -16.384000778198242 L 55.722999572753906 -17.503999710083008 L 55.69960021972656 -17.499874114990234 L 49.37137222290039 -16.384000778198242 L 49.152000427246094 -16.345317840576172 L 40.36000061035156 -14.795000076293945 L 41.524864196777344 -8.192000389099121 L 42.58300018310547 -2.194000005722046 M -17.31999969482422 6.452000141143799 L -18.458227157592773 4.440892164675075e-17 L -19.542999267578125 -6.14900016784668 L -32.768001556396484 -3.816847562789917 L -34.904998779296875 -3.440000057220459 L -34.29867935180664 4.440892164675075e-17 L -32.854793548583984 8.192000389099121 L -32.768001556396484 8.684419631958008 L -32.683998107910156 9.16100025177002 L -28.672000885009766 8.453598976135254 L -27.188350677490234 8.192000389099121 L -17.31999969482422 6.452000141143799 z" fill="none" stroke="rgb(0,0,255)" stroke-width="0.05mm" />
</svg>