<?xml version="1.0" standalone="no"?>
<!DOCTYPE svg PUBLIC "-//W3C//DTD SVG 1.1//EN"
  "http://www.w3.org/Graphics/SVG/1.1/DTD/svg11.dtd">
<svg width="155.75mm" height="138.51199340820312mm" viewBox="-77.875 -69.25599670410156 155.75 138.51199340820312" xmlns="http://www.w3.org/2000/svg" version="1.1">
	<title>svgOutput</title>
	<desc>made with tinkercad</desc>
<path d="M -74.9327621459961 68.25572204589844 L -76.875 68.25599670410156 L -76.875 65.53600311279297 L -76.875 49.152000427246094 L -76.875 40.959999084472656 L -76.875 32.768001556396484 L -76.875 4.440892164675075e-17 L -76.875 -8.192000389099121 L -76.875 -16.384000778198242 L -76.875 -32.768001556396484 L -76.875 -49.152000427246094 L -76.875 -57.34400177001953 L -76.875 -65.53600311279297 L -76.875 -68.25599670410156 L -73.72799682617188 -68.25599670410156 L -70.5770034790039 -68.25599670410156 L -69.63200378417969 -68.25599670410156 L -67.58399963378906 -68.25599670410156 L -65.53600311279297 -68.25599670410156 L -57.34400177001953 -68.25599670410156 L -53.24800109863281 -68.25599670410156 L -51.20000076293945 -68.25599670410156 L -50.65797805786133 -68.25599670410156 L -49.152000427246094 -68.25599670410156 L -48.57804870605469 -68.25599670410156 L -32.768001556396484 -68.25599670410156 L -29.24834632873535 -68.25599670410156 L -16.384000778198242 -68.25599670410156 L -9.91443157196045 -68.25599670410156 L -8.898211479187012 -68.25599670410156 L 0 -68.25599670410156 L 16.384000778198242 -68.25599670410156 L 32.768001556396484 -68.25599670410156 L 48.00967025756836 -68.25599670410156 L 49.025001525878906 -68.25599670410156 L 49.152000427246094 -68.25599670410156 L 53.23500061035156 -68.25599670410156 L 53.24800109863281 -68.25499725341797 L 53.986000061035156 -68.197998046875 L 54.721458435058594 -68.04652404785156 L 54.7239990234375 -68.0459976196289 L 54.722999572753906 -68.0459976196289 L 55.43600082397461 -67.80400085449219 L 56.11399841308594 -67.4729995727539 L 56.740264892578125 -67.06244659423828 L 56.74399948120117 -67.05999755859375 L 57.23194122314453 -66.6451644897461 L 57.31814956665039 -66.5719985961914 L 57.34400177001953 -66.54375457763672 L 57.7499885559082 -66.10021209716797 L 57.82600021362305 -66.01699829101562 L 58.164337158203125 -65.53600311279297 L 58.2599983215332 -65.4000015258789 L 58.61399841308594 -64.73600006103516 L 58.88199996948242 -64.03199768066406 L 59.060001373291016 -63.29999923706055 L 60.110408782958984 -57.34400177001953 L 61.55515670776367 -49.152000427246094 L 62.999908447265625 -40.959999084472656 L 64.44465637207031 -32.768001556396484 L 65.53600311279297 -26.57990074157715 L 70.22366333007812 4.440892164675075e-17 L 76.0026626586914 32.768001556396484 L 76.79100036621094 37.237998962402344 L 76.87409973144531 37.978004455566406 L 76.875 37.986000061035156 L 76.8740005493164 37.98500061035156 L 76.86299896240234 38.73899841308594 L 76.86399841308594 38.7400016784668 L 76.75987243652344 39.47978210449219 L 76.75900268554688 39.486000061035156 L 76.75900268554688 39.483001708984375 L 76.56099700927734 40.21099853515625 L 76.2750015258789 40.90700149536133 L 76.24486541748047 40.959999084472656 L 75.9020004272461 41.5629997253418 L 75.45460510253906 42.16117858886719 L 75.45099639892578 42.16600036621094 L 75.4489974975586 42.16699981689453 L 74.93163299560547 42.704227447509766 L 74.9280014038086 42.70800018310547 L 74.42815399169922 43.10923385620117 L 74.33999633789062 43.18014907836914 L 73.79510498046875 43.51593017578125 L 73.72799682617188 43.55717468261719 L 73.6989974975586 43.57500076293945 L 73.01300048828125 43.88600158691406 L 72.29299926757812 44.108001708984375 L 71.79374694824219 44.208900451660156 L 71.64667510986328 44.23858642578125 L 69.63200378417969 44.64539337158203 L 68.99674987792969 44.77366638183594 L 68.84982299804688 44.80335235595703 L 67.59855651855469 45.055999755859375 L 66.20274353027344 45.337833404541016 L 66.05596923828125 45.36751937866211 L 65.53600311279297 45.47251510620117 L 63.40829086303711 45.90215301513672 L 57.34400177001953 47.12666702270508 L 53.717472076416016 47.858943939208984 L 49.32691192626953 48.74549865722656 L 49.152000427246094 48.78081512451172 L 47.31374740600586 49.152000427246094 L 32.768001556396484 52.089111328125 L 30.69188117980957 52.508323669433594 L 19.37028694152832 54.79440689086914 L 12.19892692565918 56.24246597290039 L 12.05185317993164 56.27216720581055 L 0 58.706058502197266 L -16.384000778198242 62.01483917236328 L -25.275373458862305 63.81046676635742 L -32.768001556396484 65.32361602783203 L -33.819644927978516 65.53600311279297 L -37.538108825683594 66.28694915771484 L -37.685035705566406 66.31663513183594 L -38.39433670043945 66.45986938476562 L -40.337059020996094 66.85216522216797 L -40.480987548828125 66.88125610351562 L -43.13541030883789 67.41738891601562 L -43.28248596191406 67.4469223022461 L -43.88103485107422 67.56780242919922 L -45.88208770751953 67.9719467163086 L -45.9237174987793 67.98035430908203 L -46.07079315185547 68.01004028320312 L -46.457000732421875 68.08799743652344 L -47.198001861572266 68.21900177001953 L -47.95199966430664 68.25399780273438 L -49.152000427246094 68.25399780273438 L -50.05289840698242 68.25399780273438 L -65.53600311279297 68.25507354736328 L -74.63961791992188 68.25569915771484 L -74.79193878173828 68.25569915771484 L -74.9327621459961 68.25572204589844 M 65.32019805908203 40.12179946899414 L 65.53600311279297 40.0322380065918 L 65.7249984741211 39.953800201416016 L 65.77059936523438 39.91899871826172 L 66.11819458007812 39.6521110534668 L 66.11859893798828 39.651798248291016 L 66.15360260009766 39.60599899291992 L 66.4207992553711 39.257999420166016 L 66.44280242919922 39.2052001953125 L 66.56424713134766 38.9119987487793 L 66.61080169677734 38.799598693847656 L 66.61820220947266 38.74259948730469 L 66.67500305175781 38.308998107910156 L 66.67474365234375 38.30704879760742 L 66.61820220947266 37.87459945678711 L 66.61080169677734 37.81760025024414 L 66.44280242919922 37.4119987487793 L 66.4207992553711 37.35900115966797 L 66.15360260009766 37.01020050048828 L 66.11859893798828 36.964599609375 L 65.9871826171875 36.86399841308594 L 65.77059936523438 36.69820022583008 L 65.7249984741211 36.66339874267578 L 65.53600311279297 36.58533477783203 L 65.32019805908203 36.49620056152344 L 65.26719665527344 36.47420120239258 L 65.26681518554688 36.47414779663086 L 65.21019744873047 36.46659851074219 L 65.1531982421875 36.47420120239258 L 64.28359985351562 36.47420120239258 L 64.23059844970703 36.49620056152344 L 63.82500076293945 36.66339874267578 L 63.821659088134766 36.66594696044922 L 63.77939987182617 36.69820022583008 L 63.56281280517578 36.86399841308594 L 63.487998962402344 36.92127227783203 L 63.431400299072266 36.964599609375 L 63.39659881591797 37.01020050048828 L 63.13019943237305 37.35900115966797 L 63.129947662353516 37.35960388183594 L 63.10820007324219 37.4119987487793 L 62.94020080566406 37.81760025024414 L 62.93259811401367 37.87459945678711 L 62.875 38.308998107910156 L 62.93259811401367 38.74259948730469 L 62.94020080566406 38.799598693847656 L 62.98675537109375 38.9119987487793 L 63.10820007324219 39.2052001953125 L 63.1277961730957 39.252227783203125 L 63.13019943237305 39.257999420166016 L 63.39659881591797 39.60599899291992 L 63.431400299072266 39.651798248291016 L 63.487998962402344 39.69525909423828 L 63.77939987182617 39.91899871826172 L 63.82395935058594 39.953006744384766 L 63.82500076293945 39.953800201416016 L 64.23059844970703 40.12179946899414 L 64.28359985351562 40.143798828125 L 64.3405990600586 40.15140151977539 L 64.39759826660156 40.143798828125 L 65.26719665527344 40.143798828125 L 65.32019805908203 40.12179946899414 M 33.03779983520508 -59.59479904174805 L 32.768001556396484 -59.482826232910156 L 32.632999420166016 -59.42679977416992 L 32.587398529052734 -59.391998291015625 L 32.23942947387695 -59.1256217956543 L 32.23939895629883 -59.1255989074707 L 32.20439910888672 -59.08000183105469 L 31.93720054626465 -58.731998443603516 L 31.915199279785156 -58.67900085449219 L 31.748233795166016 -58.273963928222656 L 31.74799919128418 -58.273399353027344 L 31.7406005859375 -58.216400146484375 L 31.683609008789062 -57.786590576171875 L 31.683000564575195 -57.78200149536133 L 31.7406005859375 -57.347599029541016 L 31.74106788635254 -57.34400177001953 L 31.74799919128418 -57.29059982299805 L 31.915199279785156 -56.8849983215332 L 31.936365127563477 -56.83401107788086 L 31.93720054626465 -56.832000732421875 L 32.20439910888672 -56.484798431396484 L 32.23939895629883 -56.43920135498047 L 32.587398529052734 -56.172000885009766 L 32.632999420166016 -56.13719940185547 L 32.768001556396484 -56.081172943115234 L 33.03779983520508 -55.969200134277344 L 33.09080123901367 -55.947200775146484 L 33.14780044555664 -55.93960189819336 L 33.20479965209961 -55.947200775146484 L 34.07428741455078 -55.947200775146484 L 34.07440185546875 -55.947200775146484 L 34.12739944458008 -55.969200134277344 L 34.53300094604492 -56.13719940185547 L 34.5786018371582 -56.172000885009766 L 34.77135467529297 -56.31999969482422 L 34.816001892089844 -56.354278564453125 L 34.92660140991211 -56.43920135498047 L 34.96160125732422 -56.484798431396484 L 35.228694915771484 -56.83186721801758 L 35.22880172729492 -56.832000732421875 L 35.2505989074707 -56.8849983215332 L 35.41780090332031 -57.29059982299805 L 35.42491912841797 -57.34400177001953 L 35.42539978027344 -57.347599029541016 L 35.483001708984375 -57.78200149536133 L 35.42539978027344 -58.216400146484375 L 35.41780090332031 -58.273399353027344 L 35.2505989074707 -58.67900085449219 L 35.22880172729492 -58.731998443603516 L 35.228694915771484 -58.73213577270508 L 34.96160125732422 -59.08000183105469 L 34.92660140991211 -59.1255989074707 L 34.816001892089844 -59.21026611328125 L 34.5786018371582 -59.391998291015625 L 34.53300094604492 -59.42679977416992 L 34.48704528808594 -59.44583511352539 L 34.12739944458008 -59.59479904174805 L 34.07440185546875 -59.616798400878906 L 33.20479965209961 -59.616798400878906 L 33.14780044555664 -59.6244010925293 L 33.09081268310547 -59.61680221557617 L 33.09080123901367 -59.616798400878906 L 33.03779983520508 -59.59479904174805 M -25.840200424194336 -56.190399169921875 L -25.89679718017578 -55.75755310058594 L -25.89699935913086 -55.75600051879883 L -25.8876953125 -55.684837341308594 L -25.840200424194336 -55.32160186767578 L -25.836875915527344 -55.29600143432617 L -25.832799911499023 -55.26459884643555 L -25.6648006439209 -54.85900115966797 L -25.643634796142578 -54.80801010131836 L -25.642799377441406 -54.805999755859375 L -25.375600814819336 -54.45880126953125 L -25.340599060058594 -54.41320037841797 L -24.992599487304688 -54.145999908447266 L -24.94700050354004 -54.11119842529297 L -24.576000213623047 -53.95722579956055 L -24.542200088500977 -53.943199157714844 L -24.489200592041016 -53.921199798583984 L -24.432199478149414 -53.91360092163086 L -24.37540054321289 -53.921199798583984 L -23.505800247192383 -53.921199798583984 L -23.452600479125977 -53.943199157714844 L -23.047000885009766 -54.11119842529297 L -23.00160026550293 -54.145999908447266 L -22.65462875366211 -54.41302490234375 L -22.654399871826172 -54.41320037841797 L -22.619400024414062 -54.45880126953125 L -22.527999877929688 -54.57756423950195 L -22.35219955444336 -54.805999755859375 L -22.3302001953125 -54.85900115966797 L -22.162200927734375 -55.26459884643555 L -22.15801239013672 -55.29600143432617 L -22.154600143432617 -55.32160186767578 L -22.09779930114746 -55.75600051879883 L -22.154600143432617 -56.190399169921875 L -22.162200927734375 -56.247398376464844 L -22.3302001953125 -56.65299987792969 L -22.352088928222656 -56.70573043823242 L -22.35219955444336 -56.70600128173828 L -22.527999877929688 -56.934959411621094 L -22.619400024414062 -57.05400085449219 L -22.654399871826172 -57.09960174560547 L -22.97292709350586 -57.34400177001953 L -23.00160026550293 -57.36600112915039 L -23.047000885009766 -57.40079879760742 L -23.090709686279297 -57.41890335083008 L -23.452600479125977 -57.56880187988281 L -23.505800247192383 -57.59080123901367 L -24.37540054321289 -57.59080123901367 L -24.432199478149414 -57.5984001159668 L -24.489200592041016 -57.59080123901367 L -24.542200088500977 -57.56880187988281 L -24.576000213623047 -57.554771423339844 L -24.94700050354004 -57.40079879760742 L -24.992599487304688 -57.36600112915039 L -25.021339416503906 -57.34400177001953 L -25.3405704498291 -57.09962463378906 L -25.340599060058594 -57.09960174560547 L -25.375600814819336 -57.05400085449219 L -25.642799377441406 -56.70600128173828 L -25.6648006439209 -56.65299987792969 L -25.832721710205078 -56.24758529663086 L -25.832799911499023 -56.247398376464844 L -25.840200424194336 -56.190399169921875 M -49.48139953613281 -64.4822006225586 L -49.47748565673828 -64.51200103759766 L -49.42300033569336 -64.927001953125 L -49.48139953613281 -65.3718032836914 L -49.48908615112305 -65.43033599853516 L -49.489200592041016 -65.43119812011719 L -49.532615661621094 -65.53600311279297 L -49.66120147705078 -65.84639739990234 L -49.684200286865234 -65.9020004272461 L -49.957000732421875 -66.25800323486328 L -49.990692138671875 -66.30181884765625 L -49.99359893798828 -66.30560302734375 L -50.350399017333984 -66.57839965820312 L -50.39799880981445 -66.61499786376953 L -50.812400817871094 -66.78700256347656 L -50.867801666259766 -66.80979919433594 L -51.20000076293945 -66.80979919433594 L -51.758201599121094 -66.80979919433594 L -51.81779861450195 -66.81780242919922 L -51.877201080322266 -66.80979919433594 L -51.93280029296875 -66.78700256347656 L -52.3476448059082 -66.61514282226562 L -52.347999572753906 -66.61499786376953 L -52.395599365234375 -66.57839965820312 L -52.7515983581543 -66.30560302734375 L -52.78195571899414 -66.26612091064453 L -52.78820037841797 -66.25800323486328 L -53.061798095703125 -65.9020004272461 L -53.084564208984375 -65.84648895263672 L -53.084598541259766 -65.84639739990234 L -53.212589263916016 -65.53600311279297 L -53.24800109863281 -65.45011901855469 L -53.25579833984375 -65.43119812011719 L -53.26380157470703 -65.3718032836914 L -53.323001861572266 -64.927001953125 L -53.26380157470703 -64.4822006225586 L -53.25579833984375 -64.42259979248047 L -53.24800109863281 -64.4036865234375 L -53.084598541259766 -64.00740051269531 L -53.061798095703125 -63.95199966430664 L -52.78820037841797 -63.59600067138672 L -52.78525924682617 -63.5921745300293 L -52.75184631347656 -63.54872131347656 L -52.7515983581543 -63.54840087890625 L -52.67300796508789 -63.487998962402344 L -52.395599365234375 -63.27479934692383 L -52.347999572753906 -63.23820114135742 L -52.292999267578125 -63.21552276611328 L -51.93280029296875 -63.06700134277344 L -51.877201080322266 -63.04399871826172 L -50.98680114746094 -63.04399871826172 L -50.927398681640625 -63.03620147705078 L -50.86819839477539 -63.043949127197266 L -50.867801666259766 -63.04399871826172 L -50.812400817871094 -63.06700134277344 L -50.39828109741211 -63.23808288574219 L -50.39799880981445 -63.23820114135742 L -50.350399017333984 -63.27479934692383 L -50.07236862182617 -63.487998962402344 L -49.99359893798828 -63.54840087890625 L -49.957000732421875 -63.59600067138672 L -49.684200286865234 -63.95199966430664 L -49.663997650146484 -64.00066375732422 L -49.66120147705078 -64.00740051269531 L -49.48923873901367 -64.4225082397461 L -49.489200592041016 -64.42259979248047 L -49.48139953613281 -64.4822006225586 M -58.57659912109375 -8.213800430297852 L -59.391998291015625 -8.213800430297852 L -59.446189880371094 -8.213800430297852 L -59.44620132446289 -8.213800430297852 L -59.49871826171875 -8.192000389099121 L -59.49919891357422 -8.191800117492676 L -59.836036682128906 -8.052005767822266 L -59.90399932861328 -8.023799896240234 L -59.94960021972656 -7.988800048828125 L -60.23458480834961 -7.769984722137451 L -60.29759979248047 -7.72160005569458 L -60.33259963989258 -7.676199913024902 L -60.59980010986328 -7.328199863433838 L -60.62179946899414 -7.275000095367432 L -60.78976058959961 -6.870294570922852 L -60.789798736572266 -6.870200157165527 L -60.790077209472656 -6.868076324462891 L -60.79719924926758 -6.813399791717529 L -60.85384750366211 -6.380152702331543 L -60.854000091552734 -6.379000186920166 L -60.82332992553711 -6.144000053405762 L -60.79719924926758 -5.94379997253418 L -60.789798736572266 -5.8867998123168945 L -60.62179946899414 -5.48199987411499 L -60.599910736083984 -5.429268836975098 L -60.59980010986328 -5.428999900817871 L -60.33259963989258 -5.080999851226807 L -60.29891586303711 -5.037116527557373 L -60.29759979248047 -5.035399913787842 L -59.94960021972656 -4.769000053405762 L -59.90408706665039 -4.734065532684326 L -59.90399932861328 -4.734000205993652 L -59.49919891357422 -4.565999984741211 L -59.44620132446289 -4.544000148773193 L -59.391998291015625 -4.53696346282959 L -59.389198303222656 -4.536600112915039 L -59.332401275634766 -4.544000148773193 L -58.462799072265625 -4.544000148773193 L -58.40959930419922 -4.565999984741211 L -58.06463623046875 -4.709166049957275 L -58.00550079345703 -4.733709335327148 L -58.004798889160156 -4.734000205993652 L -57.95940017700195 -4.769000053405762 L -57.61143112182617 -5.035377025604248 L -57.61140060424805 -5.035399913787842 L -57.57640075683594 -5.080999851226807 L -57.34400177001953 -5.383676528930664 L -57.309200286865234 -5.428999900817871 L -57.287200927734375 -5.48199987411499 L -57.11920166015625 -5.8867998123168945 L -57.11180114746094 -5.94379997253418 L -57.05500030517578 -6.379000186920166 L -57.05514907836914 -6.380152702331543 L -57.11180114746094 -6.813399791717529 L -57.11920166015625 -6.870200157165527 L -57.119239807128906 -6.870294570922852 L -57.287200927734375 -7.275000095367432 L -57.309200286865234 -7.328199863433838 L -57.34400177001953 -7.373523235321045 L -57.57640075683594 -7.676199913024902 L -57.609344482421875 -7.71893310546875 L -57.61140060424805 -7.72160005569458 L -57.95940017700195 -7.988800048828125 L -58.004798889160156 -8.023799896240234 L -58.40959930419922 -8.191800117492676 L -58.41008377075195 -8.192000389099121 L -58.462799072265625 -8.213800430297852 L -58.51959991455078 -8.221199989318848 L -58.57659912109375 -8.213800430297852 M -49.69559860229492 50.1510009765625 L -50.04353332519531 50.41654968261719 L -50.04359817504883 50.41659927368164 L -50.078399658203125 50.46220016479492 L -50.34479904174805 50.81100082397461 L -50.366798400878906 50.86399841308594 L -50.506248474121094 51.20000076293945 L -50.5348014831543 51.268798828125 L -50.54240036010742 51.325801849365234 L -50.599998474121094 51.76100158691406 L -50.54240036010742 52.19459915161133 L -50.5348014831543 52.251399993896484 L -50.366798400878906 52.657798767089844 L -50.34479904174805 52.71099853515625 L -50.29927062988281 52.77033615112305 L -50.078399658203125 53.05820083618164 L -50.04359817504883 53.103599548339844 L -49.855533599853516 53.24800109863281 L -49.69559860229492 53.37080001831055 L -49.65782165527344 53.39963150024414 L -49.650001525878906 53.405601501464844 L -49.24440002441406 53.57279968261719 L -49.19139862060547 53.595001220703125 L -49.152000427246094 53.60025405883789 L -49.1343994140625 53.60260009765625 L -49.07740020751953 53.595001220703125 L -48.207801818847656 53.595001220703125 L -48.15480041503906 53.57279968261719 L -47.75 53.405601501464844 L -47.7431526184082 53.40037536621094 L -47.70439910888672 53.37080001831055 L -47.544464111328125 53.24800109863281 L -47.35639953613281 53.103599548339844 L -47.3213996887207 53.05820083618164 L -47.31205749511719 53.046058654785156 L -47.104000091552734 52.77571105957031 L -47.05419921875 52.71099853515625 L -47.03219985961914 52.657798767089844 L -46.864200592041016 52.251399993896484 L -46.8568000793457 52.19459915161133 L -46.79999923706055 51.76100158691406 L -46.80015563964844 51.75981140136719 L -46.8568000793457 51.325801849365234 L -46.864200592041016 51.268798828125 L -46.89275360107422 51.20000076293945 L -47.03219985961914 50.86399841308594 L -47.05419921875 50.81100082397461 L -47.3213996887207 50.46220016479492 L -47.35358810424805 50.420265197753906 L -47.35639953613281 50.41659927368164 L -47.70439910888672 50.1510009765625 L -47.75 50.11600112915039 L -48.15480041503906 49.948001861572266 L -48.207801818847656 49.92599868774414 L -48.20781326293945 49.92599868774414 L -48.264801025390625 49.91859817504883 L -48.321800231933594 49.92599868774414 L -48.73329544067383 49.92599868774414 L -49.152000427246094 49.92599868774414 L -49.19139862060547 49.92599868774414 L -49.24440002441406 49.948001861572266 L -49.650001525878906 50.11600112915039 L -49.65102767944336 50.116790771484375 L -49.69559860229492 50.1510009765625 M -65.7593994140625 -63.27479934692383 L -65.53600311279297 -63.44649124145508 L -65.40339660644531 -63.54840087890625 L -65.3667984008789 -63.59600067138672 L -65.09320068359375 -63.95199966430664 L -65.07019805908203 -64.00740051269531 L -64.89823913574219 -64.4225082397461 L -64.89820098876953 -64.42259979248047 L -64.8904037475586 -64.4822006225586 L -64.83200073242188 -64.927001953125 L -64.8904037475586 -65.3718032836914 L -64.89808654785156 -65.43033599853516 L -64.89820098876953 -65.43119812011719 L -64.94161224365234 -65.53600311279297 L -65.07019805908203 -65.84639739990234 L -65.09320068359375 -65.9020004272461 L -65.3667984008789 -66.25800323486328 L -65.40339660644531 -66.30560302734375 L -65.53600311279297 -66.40721130371094 L -65.7593994140625 -66.57839965820312 L -65.80699920654297 -66.61499786376953 L -65.80735778808594 -66.61515045166016 L -66.22139739990234 -66.78700256347656 L -66.27680206298828 -66.80979919433594 L -66.3364028930664 -66.81780242919922 L -66.39600372314453 -66.80979919433594 L -67.2863998413086 -66.80979919433594 L -67.341796875 -66.78700256347656 L -67.58399963378906 -66.6866683959961 L -67.75664520263672 -66.61514282226562 L -67.75700378417969 -66.61499786376953 L -67.80460357666016 -66.57839965820312 L -68.16059875488281 -66.30560302734375 L -68.19719696044922 -66.25800323486328 L -68.4707260131836 -65.90209197998047 L -68.4708023071289 -65.9020004272461 L -68.4937973022461 -65.84639739990234 L -68.62238311767578 -65.53600311279297 L -68.64549255371094 -65.48021697998047 L -68.66580200195312 -65.43119812011719 L -68.67359924316406 -65.3718032836914 L -68.73190307617188 -64.92771911621094 L -68.73200225830078 -64.927001953125 L -68.67359924316406 -64.4822006225586 L -68.66580200195312 -64.42259979248047 L -68.4937973022461 -64.00740051269531 L -68.4708023071289 -63.95199966430664 L -68.19719696044922 -63.59600067138672 L -68.16084289550781 -63.54872131347656 L -68.16059875488281 -63.54840087890625 L -68.0820083618164 -63.487998962402344 L -67.80460357666016 -63.27479934692383 L -67.75700378417969 -63.23820114135742 L -67.69985961914062 -63.214637756347656 L -67.341796875 -63.06700134277344 L -67.2863998413086 -63.04399871826172 L -66.39600372314453 -63.04399871826172 L -66.3364028930664 -63.03620147705078 L -66.2771987915039 -63.043949127197266 L -66.27680206298828 -63.04399871826172 L -66.22139739990234 -63.06700134277344 L -65.80705261230469 -63.23817825317383 L -65.80699920654297 -63.23820114135742 L -65.7593994140625 -63.27479934692383 M 15.887800216674805 -17.378400802612305 L 15.831151008605957 -16.945152282714844 L 15.831000328063965 -16.944000244140625 L 15.887800216674805 -16.508800506591797 L 15.8951997756958 -16.451799392700195 L 15.923337936401367 -16.384000778198242 L 16.063199996948242 -16.047000885009766 L 16.0851993560791 -15.994000434875488 L 16.352399826049805 -15.645999908447266 L 16.384000778198242 -15.604829788208008 L 16.38608169555664 -15.602116584777832 L 16.387399673461914 -15.6003999710083 L 16.73539924621582 -15.333999633789062 L 16.7810001373291 -15.298999786376953 L 16.826488494873047 -15.280121803283691 L 17.185800552368164 -15.130999565124512 L 17.238800048828125 -15.109199523925781 L 18.108400344848633 -15.109199523925781 L 18.1653995513916 -15.10159969329834 L 18.222200393676758 -15.109199523925781 L 18.275400161743164 -15.130999565124512 L 18.43199920654297 -15.195863723754883 L 18.680530548095703 -15.298806190490723 L 18.680999755859375 -15.298999786376953 L 18.72640037536621 -15.333999633789062 L 19.073570251464844 -15.600377082824707 L 19.07360076904297 -15.6003999710083 L 19.108600616455078 -15.645999908447266 L 19.37579917907715 -15.994000434875488 L 19.39780044555664 -16.047000885009766 L 19.537662506103516 -16.384000778198242 L 19.565799713134766 -16.451799392700195 L 19.573400497436523 -16.508800506591797 L 19.631000518798828 -16.944000244140625 L 19.573400497436523 -17.378400802612305 L 19.565929412841797 -17.434232711791992 L 19.565799713134766 -17.435199737548828 L 19.39780044555664 -17.84079933166504 L 19.37579917907715 -17.893999099731445 L 19.108600616455078 -18.241199493408203 L 19.07448387145996 -18.28545379638672 L 19.07360076904297 -18.28660011291504 L 18.884666442871094 -18.43199920654297 L 18.72640037536621 -18.553800582885742 L 18.680999755859375 -18.58880043029785 L 18.43199920654297 -18.691936492919922 L 18.275400161743164 -18.756799697875977 L 18.222200393676758 -18.778799057006836 L 18.1653995513916 -18.786399841308594 L 18.108400344848633 -18.778799057006836 L 17.238800048828125 -18.778799057006836 L 17.185800552368164 -18.756799697875977 L 16.7810001373291 -18.58880043029785 L 16.780914306640625 -18.588733673095703 L 16.73539924621582 -18.553800582885742 L 16.57676887512207 -18.43199920654297 L 16.387399673461914 -18.28660011291504 L 16.384000778198242 -18.282190322875977 L 16.352399826049805 -18.241199493408203 L 16.0851993560791 -17.893999099731445 L 16.063199996948242 -17.84079933166504 L 15.895238876342773 -17.43529510498047 L 15.8951997756958 -17.435199737548828 L 15.895075798034668 -17.43424415588379 L 15.887800216674805 -17.378400802612305 M -31.25860023498535 13.623000144958496 L -30.99220085144043 13.274999618530273 L -30.970199584960938 13.222000122070312 L -30.802200317382812 12.81719970703125 L -30.794599533081055 12.76039981842041 L -30.7934627532959 12.751822471618652 L -30.73699951171875 12.326000213623047 L -30.742029190063477 12.288000106811523 L -30.794599533081055 11.890800476074219 L -30.80207061767578 11.834766387939453 L -30.802200317382812 11.833800315856934 L -30.970199584960938 11.428199768066406 L -30.99188995361328 11.375748634338379 L -30.99220085144043 11.375 L -31.25860023498535 11.027799606323242 L -31.293399810791016 10.982399940490723 L -31.641399383544922 10.715200424194336 L -31.687000274658203 10.68019962310791 L -31.760478973388672 10.649909973144531 L -32.09260177612305 10.512999534606934 L -32.145599365234375 10.491000175476074 L -32.21597671508789 10.491000175476074 L -32.669212341308594 10.491000175476074 L -32.768001556396484 10.491000175476074 L -33.015201568603516 10.491000175476074 L -33.072200775146484 10.483400344848633 L -33.12919998168945 10.491000175476074 L -33.18220138549805 10.512999534606934 L -33.58700180053711 10.68019962310791 L -33.58935546875 10.682007789611816 L -33.632598876953125 10.715200424194336 L -33.98059844970703 10.982399940490723 L -34.01559829711914 11.027799606323242 L -34.28272247314453 11.374899864196777 L -34.282798767089844 11.375 L -34.3047981262207 11.428199768066406 L -34.31320571899414 11.448493957519531 L -34.47274398803711 11.833661079406738 L -34.472801208496094 11.833800315856934 L -34.480201721191406 11.890800476074219 L -34.532039642333984 12.288000106811523 L -34.536895751953125 12.325211524963379 L -34.5369987487793 12.326000213623047 L -34.480201721191406 12.76039981842041 L -34.472801208496094 12.81719970703125 L -34.3047981262207 13.222000122070312 L -34.282798767089844 13.274999618530273 L -34.01559829711914 13.623000144958496 L -33.98480224609375 13.663124084472656 L -33.98059844970703 13.668600082397461 L -33.98057174682617 13.668622970581055 L -33.632598876953125 13.9350004196167 L -33.58700180053711 13.970199584960938 L -33.18220138549805 14.138199806213379 L -33.12919998168945 14.159799575805664 L -33.05668640136719 14.159799575805664 L -32.768001556396484 14.159799575805664 L -32.25960159301758 14.159799575805664 L -32.202598571777344 14.167400360107422 L -32.145599365234375 14.159799575805664 L -32.09260177612305 14.138199806213379 L -31.687000274658203 13.970199584960938 L -31.641399383544922 13.9350004196167 L -31.293659210205078 13.66879940032959 L -31.293399810791016 13.668600082397461 L -31.289255142211914 13.663168907165527 L -31.25860023498535 13.623000144958496 M -8.51479721069336 42.78544998168945 L -8.515000343322754 42.7869987487793 L -8.458200454711914 43.22140121459961 L -8.450799942016602 43.27840042114258 L -8.36524772644043 43.484947204589844 L -8.28279972076416 43.683998107910156 L -8.2608003616333 43.73699951171875 L -8.192000389099121 43.826602935791016 L -7.993599891662598 44.084999084472656 L -7.958600044250488 44.13059997558594 L -7.610599994659424 44.39780044555664 L -7.565000057220459 44.43280029296875 L -7.160200119018555 44.599998474121094 L -7.1072001457214355 44.62200164794922 L -7.106936931610107 44.62200164794922 L -6.5817060470581055 44.62200164794922 L -6.237599849700928 44.62200164794922 L -6.180600166320801 44.62919998168945 L -6.144000053405762 44.62456130981445 L -6.124042987823486 44.622032165527344 L -6.123799800872803 44.62200164794922 L -6.0706000328063965 44.599998474121094 L -5.664999961853027 44.43280029296875 L -5.61959981918335 44.39780044555664 L -5.27239990234375 44.13059997558594 L -5.2715253829956055 44.129459381103516 L -5.237400054931641 44.084999084472656 L -4.970200061798096 43.73699951171875 L -4.970088481903076 43.736732482910156 L -4.948200225830078 43.683998107910156 L -4.780200004577637 43.27840042114258 L -4.772600173950195 43.22140121459961 L -4.7443037033081055 43.007999420166016 L -4.715000152587891 42.7869987487793 L -4.772600173950195 42.35260009765625 L -4.780200004577637 42.295799255371094 L -4.948200225830078 41.89099884033203 L -4.970200061798096 41.8380012512207 L -5.237400054931641 41.489200592041016 L -5.270021438598633 41.44669723510742 L -5.27239990234375 41.443599700927734 L -5.61959981918335 41.17720031738281 L -5.664999961853027 41.1422004699707 L -5.739190578460693 41.11146926879883 L -6.0706000328063965 40.97420120239258 L -6.10493803024292 40.959999084472656 L -6.123799800872803 40.95220184326172 L -6.180600166320801 40.944801330566406 L -6.237599849700928 40.95220184326172 L -7.1071906089782715 40.95220184326172 L -7.1072001457214355 40.95220184326172 L -7.125990867614746 40.959999084472656 L -7.160200119018555 40.97420120239258 L -7.565000057220459 41.1422004699707 L -7.610599994659424 41.17720031738281 L -7.958600044250488 41.443599700927734 L -7.9599175453186035 41.445316314697266 L -7.993599891662598 41.489200592041016 L -8.192000389099121 41.74818801879883 L -8.2608003616333 41.8380012512207 L -8.28279972076416 41.89099884033203 L -8.450760841369629 42.29570388793945 L -8.450799942016602 42.295799255371094 L -8.458200454711914 42.35260009765625 L -8.51479721069336 42.78544998168945 M -8.192000389099121 37.35486602783203 L 0 35.91088104248047 L 6.966000080108643 34.68299865722656 L 6.628246307373047 32.768001556396484 L 5.1834025382995605 24.576000213623047 L 4.82219123840332 22.527999877929688 L 4.743000030517578 22.07900047302246 L 4.0960001945495605 22.193044662475586 L 0 22.915037155151367 L -8.192000389099121 24.35902214050293 L -9.422956466674805 24.576000213623047 L -10.619999885559082 24.78700065612793 L -9.934792518615723 28.672000885009766 L -9.212370872497559 32.768001556396484 L -8.397000312805176 37.39099884033203 L -8.192000389099121 37.35486602783203 M 43.692161560058594 4.0960001945495605 L 44.41458511352539 8.192000389099121 L 45.85942840576172 16.384000778198242 L 45.89099884033203 16.562999725341797 L 46.90568542480469 16.384000778198242 L 49.152000427246094 15.9877290725708 L 61.25299835205078 13.852999687194824 L 60.25492477416992 8.192000389099121 L 59.03099822998047 1.25 L 49.152000427246094 2.9919912815093994 L 45.055999755859375 3.714250087738037 L 43.667999267578125 3.9590001106262207 L 43.692161560058594 4.0960001945495605 M 32.768001556396484 25.325925827026367 L 28.19099998474121 26.132999420166016 L 29.361324310302734 32.768001556396484 L 30.083805084228516 36.86399841308594 L 30.413999557495117 38.736000061035156 L 32.768001556396484 38.320884704589844 L 40.959999084472656 36.87627410888672 L 41.02960205078125 36.86399841308594 L 45.7760009765625 36.027000427246094 L 45.76255416870117 35.95073318481445 L 45.201416015625 32.768001556396484 L 43.75710678100586 24.576000213623047 L 43.55400085449219 23.423999786376953 L 40.959999084472656 23.881406784057617 L 37.020896911621094 24.576000213623047 L 32.768001556396484 25.325925827026367 M 8.192000389099121 -31.428863525390625 L 0 -29.984878540039062 L -0.8899999856948853 -29.827999114990234 L -0.6860971450805664 -28.672000885009766 L 0 -24.782264709472656 L 0.036382291465997696 -24.576000213623047 L 1.3329999446868896 -17.225000381469727 L 8.192000389099121 -18.434465408325195 L 16.210769653320312 -19.848438262939453 L 16.384000778198242 -19.878984451293945 L 16.695999145507812 -19.93400001525879 L 16.599685668945312 -20.479999542236328 L 16.384000778198242 -21.702701568603516 L 15.877148628234863 -24.576000213623047 L 14.472999572753906 -32.5359992980957 L 8.192000389099121 -31.428863525390625 M 24.576000213623047 -18.278446197509766 L 32.768001556396484 -19.722965240478516 L 35.926998138427734 -20.280000686645508 L 35.891719818115234 -20.479999542236328 L 35.16918182373047 -24.576000213623047 L 33.7241096496582 -32.768001556396484 L 33.70399856567383 -32.88199996948242 L 33.057254791259766 -32.768001556396484 L 32.768001556396484 -32.71701431274414 L 24.576000213623047 -31.273029327392578 L 18.340999603271484 -30.173999786376953 L 19.328411102294922 -24.576000213623047 L 20.050891876220703 -20.479999542236328 L 20.41213035583496 -18.43199920654297 L 20.479999542236328 -18.047225952148438 L 20.56399917602539 -17.570999145507812 L 24.576000213623047 -18.278446197509766 M 17.7810001373291 -13.779999732971191 L 16.384000778198242 -13.533754348754883 L 8.192000389099121 -12.08976936340332 L 2.4179999828338623 -11.071999549865723 L 2.9260740280151367 -8.192000389099121 L 4.371262073516846 4.440892164675075e-17 L 4.640999794006348 1.5290000438690186 L 8.192000389099121 0.9030735492706299 L 13.315308570861816 4.440892164675075e-17 L 16.384000778198242 -0.540911078453064 L 20.003999710083008 -1.1790000200271606 L 18.766803741455078 -8.192000389099121 L 18.301776885986328 -10.82799243927002 L 18.04421043395996 -12.288000106811523 L 17.7810001373291 -13.779999732971191 M 12.288000106811523 38.886905670166016 L 16.384000778198242 38.16437911987305 L 24.576000213623047 36.71932601928711 L 26.545000076293945 36.37200164794922 L 25.909303665161133 32.768001556396484 L 24.843107223510742 26.723342895507812 L 24.576000213623047 25.20901870727539 L 24.464344024658203 24.576000213623047 L 24.32200050354004 23.768999099731445 L 19.744033813476562 24.576000213623047 L 16.384000778198242 25.168304443359375 L 8.960000038146973 26.476999282836914 L 10.06897258758545 32.768001556396484 L 10.79101276397705 36.86399841308594 L 11.182000160217285 39.082000732421875 L 12.288000106811523 38.886905670166016 M 36.86399841308594 -14.099912643432617 L 32.768001556396484 -13.377920150756836 L 24.576000213623047 -11.933935165405273 L 21.64900016784668 -11.418000221252441 L 22.21811294555664 -8.192000389099121 L 23.35122299194336 -1.7690070867538452 L 23.663301467895508 4.440892164675075e-17 L 23.871999740600586 1.1829999685287476 L 24.576000213623047 1.0589452981948853 L 30.585426330566406 4.440892164675075e-17 L 32.768001556396484 -0.3846000432968139 L 39.23400115966797 -1.5240000486373901 L 38.05828857421875 -8.192000389099121 L 37.33607864379883 -12.288000106811523 L 37.012001037597656 -14.12600040435791 L 36.86399841308594 -14.099912643432617 M -26.226999282836914 -43.54100036621094 L -32.768001556396484 -42.38795852661133 L -40.868553161621094 -40.959999084472656 L -40.959999084472656 -40.943878173828125 L -41.5890007019043 -40.83300018310547 L -41.2501335144043 -38.9119987487793 L -40.959999084472656 -37.267250061035156 L -40.16632843017578 -32.768001556396484 L -39.44379425048828 -28.672000885009766 L -39.36600112915039 -28.231000900268555 L -36.865047454833984 -28.672000885009766 L -32.768001556396484 -29.39444351196289 L -24.576000213623047 -30.838960647583008 L -24.003000259399414 -30.940000534057617 L -24.32563018798828 -32.768001556396484 L -24.576000213623047 -34.18656921386719 L -25.771469116210938 -40.959999084472656 L -26.226999282836914 -43.54100036621094 M -31.856000900268555 33.47600173950195 L -31.980852127075195 32.768001556396484 L -32.11533737182617 32.00536346435547 L -32.11691665649414 31.996417999267578 L -32.34200668334961 30.719999313354492 L -32.70315933227539 28.672000885009766 L -32.768001556396484 28.30430793762207 L -33.42546844482422 24.576000213623047 L -34.07899856567383 20.8700008392334 L -40.959999084472656 22.083425521850586 L -49.152000427246094 23.52803611755371 L -49.441001892089844 23.57900047302246 L -49.265235900878906 24.576000213623047 L -49.152000427246094 25.218313217163086 L -47.821041107177734 32.768001556396484 L -47.21900177001953 36.18299865722656 L -40.959999084472656 35.08014678955078 L -32.768001556396484 33.636695861816406 L -31.856000900268555 33.47600173950195 M -24.576000213623047 46.34343338012695 L -16.384000778198242 44.8989143371582 L -10.651000022888184 43.88800048828125 L -11.167377471923828 40.959999084472656 L -12.612107276916504 32.768001556396484 L -12.87399959564209 31.283000946044922 L -16.384000778198242 31.902156829833984 L -21.292470932006836 32.768001556396484 L -24.576000213623047 33.347206115722656 L -28.23699951171875 33.99300003051758 L -27.730634689331055 36.86399841308594 L -27.00821304321289 40.959999084472656 L -26.013999938964844 46.59700012207031 L -24.576000213623047 46.34343338012695 M 37.051998138427734 -33.4119987487793 L 37.165592193603516 -32.768001556396484 L 38.61054992675781 -24.576000213623047 L 39.275001525878906 -20.80900001525879 L 40.959999084472656 -21.106121063232422 L 49.152000427246094 -22.55063819885254 L 54.63800048828125 -23.51799964904785 L 54.45136642456055 -24.576000213623047 L 53.00629425048828 -32.768001556396484 L 52.415000915527344 -36.119998931884766 L 49.152000427246094 -35.544837951660156 L 40.959999084472656 -34.100852966308594 L 37.051998138427734 -33.4119987487793 M -57.34400177001953 34.5793342590332 L -65.53600311279297 36.02288055419922 L -66.43900299072266 36.18199920654297 L -66.31877136230469 36.86399841308594 L -65.59667205810547 40.959999084472656 L -65.53600311279297 41.30414581298828 L -64.21700286865234 48.7859992980957 L -49.152000427246094 46.129547119140625 L -48.854000091552734 46.07699966430664 L -49.152000427246094 44.387664794921875 L -49.75664138793945 40.959999084472656 L -51.07699966430664 33.474998474121094 L -57.34400177001953 34.5793342590332 M -40.959999084472656 41.33568572998047 L -46.07899856567383 42.237998962402344 L -45.505985260009766 45.48663330078125 L -44.85946273803711 49.152000427246094 L -44.13698196411133 53.24800109863281 L -43.85599899291992 54.840999603271484 L -40.959999084472656 54.33030700683594 L -32.768001556396484 52.88569641113281 L -28.493999481201172 52.13199996948242 L -29.019437789916992 49.152000427246094 L -30.4638614654541 40.959999084472656 L -30.715999603271484 39.529998779296875 L -32.768001556396484 39.891700744628906 L -38.82866287231445 40.959999084472656 L -40.959999084472656 41.33568572998047 M 32.25858688354492 -40.959999084472656 L 30.813396453857422 -49.152000427246094 L 30.395999908447266 -51.518001556396484 L 24.576000213623047 -50.492122650146484 L 16.973230361938477 -49.152000427246094 L 16.384000778198242 -49.04813766479492 L 15.032999992370605 -48.810001373291016 L 16.384000778198242 -41.15190124511719 L 16.41785430908203 -40.959999084472656 L 17.256000518798828 -36.20899963378906 L 24.576000213623047 -37.4992790222168 L 32.61899948120117 -38.91699981689453 L 32.25858688354492 -40.959999084472656 M -17.31999969482422 6.452000141143799 L -18.458227157592773 4.440892164675075e-17 L -19.542999267578125 -6.14900016784668 L -24.576000213623047 -5.2614593505859375 L -32.768001556396484 -3.816847562789917 L -34.904998779296875 -3.440000057220459 L -34.65965270996094 -2.0480000972747803 L -34.29867935180664 4.440892164675075e-17 L -33.57673645019531 4.0960001945495605 L -32.854793548583984 8.192000389099121 L -32.768001556396484 8.684419631958008 L -32.683998107910156 9.16100025177002 L -28.672000885009766 8.453598976135254 L -27.188350677490234 8.192000389099121 L -17.31999969482422 6.452000141143799 M 23.312000274658203 17.57699966430664 L 23.10157012939453 16.384000778198242 L 21.656612396240234 8.192000389099121 L 21.089000701904297 4.973999977111816 L 20.479999542236328 5.081386566162109 L 16.384000778198242 5.803645610809326 L 8.192000389099121 7.248163223266602 L 5.72599983215332 7.683000087738037 L 5.8157806396484375 8.192000389099121 L 7.260739803314209 16.384000778198242 L 7.534135341644287 17.933979034423828 L 7.621979236602783 18.43199920654297 L 7.948999881744385 20.285999298095703 L 8.192000389099121 20.24315071105957 L 16.384000778198242 18.798633575439453 L 23.312000274658203 17.57699966430664 M -8.416000366210938 -52.792999267578125 L -16.384000778198242 -51.38840866088867 L -23.777999877929688 -50.084999084472656 L -23.613418579101562 -49.152000427246094 L -22.168344497680664 -40.959999084472656 L -21.55500030517578 -37.483001708984375 L -16.384000778198242 -38.39481735229492 L -8.192000389099121 -39.83933639526367 L -6.191999912261963 -40.19200134277344 L -6.327547550201416 -40.959999084472656 L -7.773385524749756 -49.152000427246094 L -8.134844779968262 -51.20000076293945 L -8.192000389099121 -51.523834228515625 L -8.416000366210938 -52.792999267578125 M -40.959999084472656 -16.59326934814453 L -42.146705627441406 -16.384000778198242 L -49.152000427246094 -15.148656845092773 L -56.05699920654297 -13.930999755859375 L -55.767303466796875 -12.288000106811523 L -55.04509353637695 -8.192000389099121 L -54.322879791259766 -4.0960001945495605 L -53.834999084472656 -1.3289999961853027 L -53.24800109863281 -1.432469129562378 L -49.152000427246094 -2.15446138381958 L -40.959999084472656 -3.5984461307525635 L -38.47200012207031 -4.0370001792907715 L -38.48240661621094 -4.0960001945495605 L -39.20488739013672 -8.192000389099121 L -40.649845123291016 -16.384000778198242 L -40.69499969482422 -16.639999389648438 L -40.959999084472656 -16.59326934814453 M -24.576000213623047 -24.563013076782227 L -32.768001556396484 -23.119028091430664 L -38.1349983215332 -22.17300033569336 L -37.83637619018555 -20.479999542236328 L -37.47513961791992 -18.43199920654297 L -37.11389923095703 -16.384000778198242 L -35.9119987487793 -9.569999694824219 L -32.768001556396484 -10.124185562133789 L -24.576000213623047 -11.568170547485352 L -20.548999786376953 -12.277999877929688 L -20.550764083862305 -12.288000106811523 L -21.273242950439453 -16.384000778198242 L -22.718202590942383 -24.576000213623047 L -22.77199935913086 -24.881000518798828 L -24.502323150634766 -24.576000213623047 L -24.576000213623047 -24.563013076782227 M -8.192000389099121 -33.49501419067383 L -12.314963340759277 -32.768001556396484 L -16.384000778198242 -32.05049514770508 L -20.469999313354492 -31.329999923706055 L -20.00116539001465 -28.672000885009766 L -19.278684616088867 -24.576000213623047 L -18.246999740600586 -18.726999282836914 L -16.384000778198242 -19.055387496948242 L -8.192000389099121 -20.499370574951172 L -2.884000062942505 -21.434999465942383 L -3.437986373901367 -24.576000213623047 L -4.1604084968566895 -28.672000885009766 L -4.25954008102417 -29.234058380126953 L -4.882830619812012 -32.768001556396484 L -5.10699987411499 -34.03900146484375 L -8.192000389099121 -33.49501419067383 M 49.124000549316406 35.358001708984375 L 49.152000427246094 35.35306167602539 L 57.34400177001953 33.908546447753906 L 63.81214141845703 32.768001556396484 L 64.48699951171875 32.64899826049805 L 63.06303024291992 24.576000213623047 L 62.263999938964844 20.04599952697754 L 57.34400177001953 20.913557052612305 L 49.152000427246094 22.358074188232422 L 46.9010009765625 22.7549991607666 L 47.222198486328125 24.576000213623047 L 48.66716003417969 32.768001556396484 L 49.124000549316406 35.358001708984375 M 49.152000427246094 -54.81601333618164 L 40.959999084472656 -53.372467041015625 L 40.25365447998047 -53.24800109863281 L 33.840999603271484 -52.11800003051758 L 34.36396789550781 -49.152000427246094 L 35.80839157104492 -40.959999084472656 L 36.0629997253418 -39.51599884033203 L 36.86399841308594 -39.65719223022461 L 40.959999084472656 -40.379180908203125 L 44.255088806152344 -40.959999084472656 L 49.152000427246094 -41.82316589355469 L 51.42599868774414 -42.2239990234375 L 50.203800201416016 -49.152000427246094 L 49.202999114990234 -54.82500076293945 L 49.152000427246094 -54.81601333618164 M -1.7990000247955322 -15.281999588012695 L -8.192000389099121 -14.155120849609375 L -16.384000778198242 -12.711135864257812 L -17.16200065612793 -12.574000358581543 L -17.111549377441406 -12.288000106811523 L -16.750280380249023 -10.239999771118164 L -16.389013290405273 -8.192000389099121 L -16.384000778198242 -8.163583755493164 L -14.943939208984375 4.440892164675075e-17 L -14.939000129699707 0.028000000864267394 L -14.7802095413208 4.440892164675075e-17 L 0 -2.6062350273132324 L 0.42399999499320984 -2.680999994277954 L 1.4781725487256485e-16 -5.084429740905762 L -0.548220694065094 -8.192000389099121 L -1.7990000247955322 -15.281999588012695 M -44.00299835205078 -35.39400100708008 L -49.152000427246094 -34.4863395690918 L -57.34400177001953 -33.042259216308594 L -58.89982986450195 -32.768001556396484 L -59.3650016784668 -32.68600082397461 L -57.934391021728516 -24.576000213623047 L -57.34400177001953 -21.2291202545166 L -57.141998291015625 -20.083999633789062 L -49.152000427246094 -21.492990493774414 L -41.779998779296875 -22.792999267578125 L -42.094547271728516 -24.576000213623047 L -43.53973388671875 -32.768001556396484 L -44.00299835205078 -35.39400100708008 M -4.197999954223633 -48.46500015258789 L -2.8741137981414795 -40.959999084472656 L -2.3869895935058594 -38.19853591918945 L -2.1515769958496094 -36.86399841308594 L -1.975000023841858 -35.862998962402344 L 0 -36.21112823486328 L 8.192000389099121 -37.655113220214844 L 13.387999534606934 -38.57099914550781 L 12.966389656066895 -40.959999084472656 L 11.520666122436523 -49.152000427246094 L 11.163999557495117 -51.17300033569336 L 8.192000389099121 -50.64909744262695 L 0 -49.205020904541016 L -0.3007717728614807 -49.152000427246094 L -4.197999954223633 -48.46500015258789 M -40.959999084472656 15.739713668823242 L -36.86399841308594 15.017674446105957 L -35.16400146484375 14.718000411987305 L -35.23139190673828 14.336000442504883 L -35.59268569946289 12.288000106811523 L -35.953983306884766 10.239999771118164 L -36.31528091430664 8.192000389099121 L -37.03787612915039 4.0960001945495605 L -37.387001037597656 2.117000102996826 L -40.959999084472656 2.746845245361328 L -49.152000427246094 4.190924167633057 L -52.749000549316406 4.824999809265137 L -52.15501403808594 8.192000389099121 L -50.70982360839844 16.384000778198242 L -50.5260009765625 17.426000595092773 L -49.152000427246094 17.183792114257812 L -44.61492156982422 16.384000778198242 L -40.959999084472656 15.739713668823242 M 2.359048366546631 8.192000389099121 L 1.9978660345077515 6.144000053405762 L 1.6366835832595825 4.0960001945495605 L 1.5089999437332153 3.371999979019165 L 0 3.638068914413452 L -8.192000389099121 5.082492828369141 L -13.854999542236328 6.080999851226807 L -13.48250961303711 8.192000389099121 L -13.121136665344238 10.239999771118164 L -12.75976276397705 12.288000106811523 L -12.037015914916992 16.384000778198242 L -11.630999565124512 18.684999465942383 L -8.192000389099121 18.078815460205078 L 0 16.634830474853516 L 1.4230114221572876 16.384000778198242 L 3.7320001125335693 15.97700023651123 L 2.359048366546631 8.192000389099121 M -29.89388656616211 24.576000213623047 L -29.312999725341797 27.868999481201172 L -24.576000213623047 27.034019470214844 L -16.384000778198242 25.590036392211914 L -13.949999809265137 25.160999298095703 L -14.053177833557129 24.576000213623047 L -14.77560043334961 20.479999542236328 L -14.987829208374023 19.276700973510742 L -15.498022079467773 16.384000778198242 L -16.17300033569336 12.557000160217285 L -16.384000778198242 12.594220161437988 L -24.576000213623047 14.039271354675293 L -28.672000885009766 14.761796951293945 L -31.535999298095703 15.267000198364258 L -31.338960647583008 16.384000778198242 L -29.89388656616211 24.576000213623047 M 40.959999084472656 -11.393919944763184 L 41.524864196777344 -8.192000389099121 L 42.58300018310547 -2.194000005722046 L 49.152000427246094 -3.3519022464752197 L 57.34400177001953 -4.795886993408203 L 57.94599914550781 -4.9019999504089355 L 57.36564254760742 -8.192000389099121 L 55.920570373535156 -16.384000778198242 L 55.722999572753906 -17.503999710083008 L 49.37137222290039 -16.384000778198242 L 49.152000427246094 -16.345317840576172 L 40.959999084472656 -14.900799751281738 L 40.36000061035156 -14.795000076293945 L 40.80227279663086 -12.288000106811523 L 40.959999084472656 -11.393919944763184 M 40.959999084472656 17.509977340698242 L 42.54199981689453 17.231000900268555 L 42.392669677734375 16.384000778198242 L 40.959999084472656 8.258027076721191 L 40.948360443115234 8.192000389099121 L 40.31999969482422 4.627999782562256 L 32.768001556396484 5.959664821624756 L 24.957000732421875 7.336999893188477 L 25.107810974121094 8.192000389099121 L 26.55276870727539 16.384000778198242 L 27.11724853515625 19.5842342376709 L 27.18000030517578 19.940000534057617 L 32.768001556396484 18.954587936401367 L 40.959999084472656 17.509977340698242 z" fill="none" stroke="rgb(0,0,255)" stroke-width="0.05mm" />
</svg>